<svg width="138" height="151" viewBox="0 0 138 151" fill="none" xmlns="http://www.w3.org/2000/svg">
<path fill-rule="evenodd" clip-rule="evenodd" d="M59.54 0.449219C55.2679 0.449219 51.0064 0.895121 46.8295 1.75651C24.2529 6.2357 5.96964 24.1323 1.39089 45.7886C-2.81774 65.489 3.48464 85.1186 18.3947 98.7994V145.618C18.363 148.03 20.4038 150.006 22.9417 150.006C22.9523 150.006 22.9628 150.006 22.9734 149.996H77.8233C77.8338 150.006 77.8444 150.006 77.855 150.006C80.3717 150.006 82.4126 148.03 82.402 145.618V123.405H105.264C105.275 123.405 105.285 123.405 105.296 123.405C112.846 123.405 118.969 117.527 118.958 110.281V95.4653L134.693 87.9257C137.136 86.7298 137.992 83.7606 136.512 81.5311L118.958 56.3887C118.535 39.6981 110.52 24.0006 97.0265 13.4511C86.3251 5.12097 73.1493 0.449219 59.54 0.449219Z" fill="#E7654B"/>
<path fill-rule="evenodd" clip-rule="evenodd" d="M59.5391 0.449219V149.986H77.8223C77.8435 149.986 77.8646 149.986 77.8858 149.986C80.3814 149.986 82.4117 148.02 82.4011 145.598V123.405H105.263C105.274 123.405 105.284 123.405 105.295 123.405C112.845 123.405 118.968 117.527 118.957 110.281V95.4552L134.692 87.9257C137.135 86.7197 137.97 83.7606 136.511 81.5311L118.957 56.3887C118.534 39.6981 110.519 24.0006 97.0256 13.4511C86.3242 5.12097 73.1484 0.449219 59.5391 0.449219Z" fill="#642A1F"/>
<path fill-rule="evenodd" clip-rule="evenodd" d="M59.3392 30.8906C58.2582 30.9002 57.1772 30.9675 56.1059 31.102C44.3497 32.4717 34.5056 42.0833 32.68 53.7231C31.181 63.4452 34.7939 72.8742 42.3991 79.0209C43.9317 80.2704 44.8013 82.0533 44.8013 83.9276V89.3438L53.0263 93.5008H66.3631L73.8771 89.3438V83.9276C73.8675 82.0486 74.7227 80.2608 76.2024 79.1026C82.621 73.9988 86.3587 66.2422 86.3395 58.0387C86.3395 50.3253 83.0438 42.9772 77.2834 37.8494C72.3061 33.4473 65.9451 30.8906 59.3392 30.8906Z" fill="#F3D5B9"/>
<path fill-rule="evenodd" clip-rule="evenodd" d="M59.3389 30.8906V93.5008H66.3628L73.8768 89.3438V83.9276C73.8672 82.0486 74.7224 80.2608 76.2021 79.1026C82.6207 73.9988 86.3585 66.2422 86.3393 58.0387C86.3345 50.3253 83.0435 42.9772 77.2831 37.8398C72.2962 33.4473 65.9448 30.8906 59.3389 30.8906Z" fill="#F8AC5E"/>
<path fill-rule="evenodd" clip-rule="evenodd" d="M59.339 76.7383C58.1908 76.7383 57.2588 77.6706 57.2588 78.8192V91.4153C57.2588 92.5639 58.1908 93.4962 59.339 93.4962C60.4873 93.4962 61.4193 92.5639 61.4193 91.4153V78.8192C61.4193 77.6706 60.4873 76.7383 59.339 76.7383Z" fill="#F8AC5E"/>
<path fill-rule="evenodd" clip-rule="evenodd" d="M59.3677 76.7383C59.3581 76.7383 59.3485 76.7383 59.3389 76.7383V93.4962C59.3485 93.4962 59.3581 93.4962 59.3677 93.4962C60.5112 93.4962 61.4336 92.5639 61.4192 91.4153V78.8192C61.4336 77.6706 60.5112 76.7383 59.3677 76.7383Z" fill="#F3D5B9"/>
<path fill-rule="evenodd" clip-rule="evenodd" d="M44.8018 89.334V91.4149C44.8018 97.1531 49.4524 101.805 55.1887 101.805H63.5002C69.227 101.805 73.8776 97.1531 73.8824 91.4149V89.334H44.8018Z" fill="#0141B3"/>
<path fill-rule="evenodd" clip-rule="evenodd" d="M59.3389 89.334V101.805H63.4994C69.2262 101.805 73.8768 97.1531 73.8816 91.4149V89.334H59.3389Z" fill="#0141B3"/>
</svg>
