<svg width="92" height="85" viewBox="0 0 92 85" fill="none" xmlns="http://www.w3.org/2000/svg">
<path fill-rule="evenodd" clip-rule="evenodd" d="M88.4641 64.1588C93.5638 54.4315 93.4226 41.0698 84.1696 23.7704C84.1696 23.7704 36.1387 -14.8989 14.321 7.64625C10.9844 11.0467 8.36252 14.7286 6.35289 18.5618C-4.81992 39.8732 2.97748 65.9096 12.7491 74.191C30.9926 90.0574 75.8275 88.2624 88.4641 64.1588Z" fill="#344A9F"/>
<path fill-rule="evenodd" clip-rule="evenodd" d="M24.9197 16.0137C22.1009 16.0137 19.8095 18.3011 19.8135 21.12V26.2302L21.5182 28.1987L19.8135 29.6318V36.4389L25.4316 41.4979L30.0221 43.4743H31.7268C32.3095 43.4704 32.8804 43.3759 33.4316 43.2026C35.1324 42.7263 36.5339 41.3877 37.2071 39.6829C37.9946 37.8129 40.0142 36.4389 42.0576 36.4389C44.1953 36.4034 46.093 35.0452 46.8214 33.0334H47.4355L51.963 35.3798L53.971 33.0334H57.3765V23.7775L53.9631 19.4152H46.1363C45.9237 19.2184 45.6953 19.0373 45.4591 18.8759C43.1441 17.0373 40.1008 16.0137 37.1402 16.0137H24.9197Z" fill="#FFE4DF"/>
<path fill-rule="evenodd" clip-rule="evenodd" d="M45.4673 18.8721V35.0768C46.0775 34.5177 46.55 33.817 46.8216 33.0335H47.4358L51.9633 35.3799L53.9712 33.0335H57.3767V23.7697L53.9712 19.4154H46.1405C45.9318 19.2185 45.7035 19.0335 45.4673 18.8721Z" fill="#FFE4DF"/>
<path fill-rule="evenodd" clip-rule="evenodd" d="M69.4119 19.4155C69.408 19.4155 69.404 19.4155 69.4001 19.4155H64.2977L62.7308 21.325L60.8922 19.4155H53.971V33.0376H47.4355C47.6718 33.9116 48.1167 34.7187 48.7308 35.388C49.3253 36.0061 50.0419 36.4903 50.8371 36.8092C52.7072 37.5927 53.971 39.7266 53.971 41.7659C53.971 43.947 55.4001 45.8171 57.3765 46.5376V47.1478L55.471 51.3014L57.3765 53.6833V57.0927H66.9473L71.1048 53.6833V45.8565C73.2859 43.4392 74.5142 40.014 74.5142 36.7423V24.5218C74.5142 21.7069 72.2269 19.4155 69.4119 19.4155Z" fill="#924430"/>
<path fill-rule="evenodd" clip-rule="evenodd" d="M57.3765 47.1436C55.6561 47.6278 54.2545 48.8837 53.6009 50.5491C53.282 51.2932 52.7938 51.9506 52.1678 52.4585C51.2505 53.2459 50.0812 53.6829 48.8686 53.6829C46.7309 53.7223 44.8332 55.0766 44.1049 57.0924H43.4907L40.0812 54.5333L36.8371 57.0924L33.4316 61.242V66.0806L36.8371 70.7066H44.7859C44.9947 70.9073 45.223 71.0845 45.4671 71.2459C47.8017 73.0924 50.6875 74.1003 53.6678 74.1081H66.0025C66.0065 74.1081 66.0104 74.1081 66.0143 74.1081C68.8253 74.1081 71.1127 71.8168 71.1048 69.0058V63.8995L68.8253 62.3325L71.1048 60.494V53.679H57.3765V47.1436Z" fill="#642A1F"/>
<path fill-rule="evenodd" clip-rule="evenodd" d="M19.8216 36.439V44.4901C17.6287 46.9311 16.42 50.0925 16.4121 53.376V65.5965C16.4082 68.4154 18.6995 70.7028 21.5184 70.7028H26.6208L28.5302 68.4232L30.0302 70.7028H36.8373V57.0846H43.483C43.0065 55.3642 41.7506 53.9626 40.0813 53.3051C38.2113 52.5256 36.8373 50.6201 36.8373 48.5807C36.8373 46.3996 35.4121 44.5295 33.4318 43.809V36.439H19.8216Z" fill="#F7A285"/>
<path fill-rule="evenodd" clip-rule="evenodd" d="M57.3768 47.1436C55.6563 47.6278 54.2547 48.8837 53.6011 50.5491C53.2901 51.2932 52.7941 51.9506 52.168 52.4585C51.2508 53.2459 50.0815 53.6829 48.8728 53.6829C48.8649 53.6829 48.857 53.6829 48.8492 53.6829C47.5893 53.6829 46.3727 54.1672 45.4673 55.0491V71.2459C47.8019 73.0924 50.6877 74.1003 53.668 74.1081H66.0028C66.0067 74.1081 66.0106 74.1081 66.0146 74.1081C68.8255 74.1081 71.113 71.8168 71.1051 69.0058V63.8995L68.8255 62.3325L71.1051 60.494L71.113 53.679H57.3768V47.1436Z" fill="#642A1F"/>
<path fill-rule="evenodd" clip-rule="evenodd" d="M62.5928 60.4941V63.8997H71.1046V60.4941H62.5928Z" fill="#924430"/>
<path fill-rule="evenodd" clip-rule="evenodd" d="M19.8213 26.2227V29.6321H28.3331V26.2227H19.8213Z" fill="#E7654B"/>
<path fill-rule="evenodd" clip-rule="evenodd" d="M60.8965 19.4155V27.9274H64.306V19.4155H60.8965Z" fill="#E7654B"/>
<path fill-rule="evenodd" clip-rule="evenodd" d="M26.6284 62.1948V70.7067H30.0339V62.1948H26.6284Z" fill="#642A1F"/>
</svg>
