<svg width="477" height="678" viewBox="0 0 477 678" fill="none" xmlns="http://www.w3.org/2000/svg">
<path fill-rule="evenodd" clip-rule="evenodd" d="M325.069 603.555C310.402 605.088 296.667 610.798 285.667 619.843C283.533 621.654 284.448 624.997 287.348 625.696C289.534 626.093 291.755 626.252 293.993 626.252C298.775 626.252 303.635 625.521 308.425 624.854C309.54 624.878 310.663 624.886 311.787 624.886C319.451 624.886 327.281 624.377 334.074 622.074C334.684 621.796 335.294 621.519 335.903 621.241C336.365 621.098 336.975 620.82 337.436 620.542C338.96 619.843 339.727 618.453 339.422 616.92V616.5C339.422 613.72 338.96 610.798 337.741 608.288C337.097 606.605 335.816 605.882 334.484 605.882C333.282 605.882 332.036 606.462 331.174 607.454C330.103 607.176 328.883 607.033 327.812 607.033C328.422 605.223 327.046 603.555 325.069 603.555Z" fill="#924430"/>
<path fill-rule="evenodd" clip-rule="evenodd" d="M389.806 603.555C387.82 603.555 386.444 605.366 387.211 607.033C385.991 607.033 384.763 607.176 383.701 607.454C382.83 606.462 381.584 605.882 380.391 605.882C379.05 605.882 377.778 606.605 377.134 608.288C375.914 610.933 375.453 613.72 375.61 616.5L375.453 617.063C375.296 618.453 376.062 619.986 377.439 620.677C377.9 620.955 378.51 621.098 379.119 621.376C379.572 621.654 380.182 621.931 380.8 622.074C387.272 624.274 394.692 624.933 402.017 624.933C403.497 624.933 404.978 624.902 406.45 624.854C411.135 625.6 415.882 626.339 420.611 626.339C422.972 626.339 425.332 626.156 427.675 625.696C430.418 624.997 431.341 621.796 429.199 619.843C418.207 610.933 404.464 605.223 389.806 603.555Z" fill="#924430"/>
<path fill-rule="evenodd" clip-rule="evenodd" d="M360.578 354.896C351.415 354.896 342.236 356.381 333.77 359.351C306.44 368.96 280.477 389.011 280.172 414.908C279.414 475.604 289.639 536.029 310.402 593.811C310.559 594.367 310.864 594.787 311.326 595.2C308.269 599.1 312.85 607.033 318.955 608.844C325.827 611.075 333.465 609.677 340.642 610.797C343.385 596.733 345.981 582.534 347.357 568.335C351.328 525.587 343.69 481.179 359.881 440.797C363.852 491.058 366.448 541.874 370.411 592.135C370.411 596.59 371.482 600.767 373.32 604.809C376.542 610.837 382.212 612.918 388.849 612.918C395.703 612.918 403.585 610.694 410.875 608.288C407.826 606.342 409.812 603.555 406.912 601.609C424.47 543.963 430.576 489.668 428.442 430.219C427.823 411.565 425.689 391.791 413.165 376.758C401.26 362.249 380.984 354.896 360.578 354.896Z" fill="#0F1C4D"/>
<path fill-rule="evenodd" clip-rule="evenodd" d="M344.169 92.0459C337.393 92.0459 330.634 92.6018 323.998 93.7136L317.126 94.9683C316.516 95.1033 316.055 95.2463 315.602 95.6592C315.14 96.2151 314.835 97.0569 314.984 97.7478V107.214C300.482 115.989 285.824 125.042 276.81 139.098C269.79 150.097 266.89 163.184 264.443 176.137C261.542 190.471 259.104 204.813 257.118 219.298C256.203 224.166 256.047 229.32 256.656 234.188C258.747 244.655 269.128 253.001 280.137 253.001C280.407 253.001 280.668 252.993 280.938 252.985C268.266 313.689 262.465 375.369 263.528 437.184C289.709 450.971 319.39 457.784 349.072 457.784C385.007 457.784 420.96 447.802 450.729 428.131C432.404 346.828 418.513 265.659 408.741 182.958C413.775 192.305 424.505 197.022 435.383 197.022C441.671 197.022 448.012 195.45 453.324 192.281C467.834 183.649 475.316 166.528 476.23 149.819C476.997 139.241 475.159 127.822 468.287 119.467C463.549 113.805 456.059 110.065 448.761 110.065C445.469 110.065 442.22 110.819 439.276 112.511C438.362 130.466 437.447 148.429 436.533 166.385C415.917 122.112 409.96 121.143 373.772 107.778C372.396 96.9139 375.148 96.0801 364.462 93.7136C357.738 92.6018 350.945 92.0459 344.169 92.0459Z" fill="white"/>
<path fill-rule="evenodd" clip-rule="evenodd" d="M303.078 114.599C296.972 117.799 290.71 121.556 284.753 124.621C284.143 146.619 283.377 168.473 282.767 190.471C282.462 200.779 282.314 211.078 281.705 221.243C279.867 250.618 275.591 279.858 268.719 308.535C285.432 325.076 308.956 334.431 333.543 334.431C335.241 334.431 336.949 334.384 338.656 334.296L328.422 147.039C317.735 138.129 306.744 127.964 303.078 114.599Z" fill="#924430"/>
<path fill-rule="evenodd" clip-rule="evenodd" d="M373.624 104.434C372.248 116.544 366.596 127.821 357.433 136.731C369.957 202.033 375.61 269.415 376.524 335.828C396.983 335.542 416.684 328.721 432.099 316.475C429.356 295.59 425.689 273.449 422.022 252.849C419.122 237.118 417.293 216.788 412.102 201.755C411.066 203.319 410.117 204.034 409.263 204.034C401.494 204.034 401.25 145.196 415.003 123.509L373.624 104.434Z" fill="#924430"/>
<path fill-rule="evenodd" clip-rule="evenodd" d="M354.838 36.0752C354.69 36.3531 354.69 36.6311 354.838 36.909V36.0752Z" fill="#F7A285"/>
<path fill-rule="evenodd" clip-rule="evenodd" d="M329.162 6.58887C320.392 6.58887 312.013 11.1075 307.963 18.8106C305.368 24.6554 304.906 31.0641 306.587 37.1868C308.12 43.1746 310.559 49.0194 313.764 54.4513C311.325 54.7293 311.02 58.3505 312.544 60.1611C314.225 62.1068 316.821 62.8056 318.65 64.1953C322.465 66.9828 324.755 71.1599 325.069 75.615C325.678 80.0701 324.912 94.6901 324.912 98.8672C324.895 98.8196 324.877 98.7958 324.86 98.7958C324.703 98.7958 324.503 100.146 324.912 100.392C330.556 103.211 336.826 104.641 343.089 104.641C349.194 104.641 355.29 103.283 360.795 100.535C357.895 80.761 356.37 60.5741 359.271 40.8081C359.724 38.9975 359.419 37.1868 358.504 35.6542C358.034 35.2333 357.424 35.0189 356.815 35.0189C356.04 35.0189 355.273 35.3683 354.838 36.0751V36.9089C354.69 36.631 354.69 36.353 354.838 36.0751C355.752 24.7984 349.194 12.8228 338.499 8.36774C335.459 7.16065 332.28 6.58887 329.162 6.58887Z" fill="#F7A285"/>
<path fill-rule="evenodd" clip-rule="evenodd" d="M328.422 14.2119C328.553 14.3469 328.692 14.4502 328.849 14.5375C328.701 14.4343 328.561 14.331 328.422 14.2119ZM339.422 9.62182C339.875 16.9993 348.88 20.7556 352.094 27.5772C354.228 32.5882 352.852 38.298 354.533 43.5949C354.69 44.2858 354.995 44.9846 355.604 45.5405C355.909 46.6523 356.371 47.907 356.675 49.0188C356.519 49.5747 356.371 49.9956 356.214 50.4165C355.604 51.6633 354.69 52.64 354.228 53.7518C353.009 56.6742 354.69 59.8825 354.385 62.94C354.08 66.0053 352.094 68.6498 349.037 70.0475C346.782 71.0163 344.334 71.5722 341.922 71.5722C341.234 71.5722 340.554 71.5245 339.875 71.4372C336.975 71.4372 334.074 70.3254 332.089 68.3718C331.479 67.8159 331.017 66.9821 330.26 66.2833C329.188 65.5924 327.969 64.8935 326.741 64.4726C324.607 63.5038 322.621 62.2491 320.94 60.7164C320.331 59.7396 319.721 58.7628 319.112 57.794L318.807 57.516C318.502 56.9601 318.04 56.3963 317.735 55.8404C317.631 55.7451 317.518 55.6498 317.361 55.6498C317.291 55.6498 317.213 55.6657 317.126 55.7054C312.849 49.2967 313.616 39.9736 309.792 32.8741C310.289 33.0408 310.785 33.1202 311.282 33.1202C313.99 33.1202 316.568 30.7299 317.735 28.1331C319.112 25.0757 319.26 21.5894 320.94 18.667C322.621 15.7446 327.664 11.2895 331.174 11.0115C331.444 10.9877 331.697 10.9798 331.923 10.9798C336.008 10.9798 332.42 14.7599 329.824 14.7599C329.476 14.7599 329.136 14.6884 328.849 14.5375C329.772 15.1649 330.834 15.4746 331.888 15.4746C332.881 15.4746 333.857 15.1966 334.684 14.6328C336.67 13.2431 338.351 11.5674 339.422 9.62182ZM328.047 0.608398C326.14 0.608398 324.224 0.933994 322.465 1.54547C317.274 3.3561 313.154 7.3903 309.339 11.4324C305.978 14.7678 303.382 18.667 301.701 22.9871C300.325 27.9981 300.787 33.152 302.773 37.885C304.758 42.6181 307.197 46.9302 310.402 51.1074C311.63 52.918 313.154 54.5936 314.835 56.1183C320.636 62.3841 322.465 71.7151 329.641 76.4482C332.855 78.5367 336.975 79.6485 341.094 79.6485C341.321 79.6565 341.538 79.6644 341.765 79.6644C345.527 79.6644 349.377 78.5526 352.547 76.4482C357.895 72.414 359.271 64.8935 359.114 58.2069C358.966 55.9834 358.809 53.6168 358.504 51.3853C358.661 51.1074 358.661 50.9724 358.661 50.6944C358.348 49.9956 358.2 49.2967 357.895 48.4629C357.738 47.6291 357.433 46.7952 357.285 45.8184C356.675 36.4874 355.299 27.1642 353.157 17.9761C352.704 14.0769 351.023 10.4557 348.576 7.2553C346.755 5.1985 343.881 3.76905 341.12 3.76905C339.945 3.76905 338.786 4.02318 337.741 4.61083C335.416 1.84724 331.758 0.608398 328.047 0.608398Z" fill="#0F1C4D"/>
<path fill-rule="evenodd" clip-rule="evenodd" d="M348.271 50.8701C347.087 50.8701 345.911 51.0369 344.761 51.3863C342.471 52.0851 341.556 53.7528 339.727 54.8725C337.741 55.9843 335.294 55.8414 333.308 56.9611C331.174 58.2079 329.494 59.8835 328.274 61.9721C327.691 62.8139 328.509 63.6557 329.345 63.6557C329.615 63.6557 329.877 63.5683 330.103 63.3618C331.479 61.9721 333.16 60.7174 334.989 59.8835C336.818 58.9067 339.109 59.1847 340.79 58.3508C342.018 57.795 342.775 56.5402 343.847 55.7064C345.188 54.8567 346.799 54.3961 348.463 54.3961C349.264 54.3961 350.074 54.4993 350.867 54.7296C350.997 54.7534 351.128 54.7693 351.25 54.7693C353.105 54.7693 353.793 51.9104 351.79 51.3863C350.64 51.0369 349.456 50.8701 348.271 50.8701Z" fill="#0F1C4D"/>
<path fill-rule="evenodd" clip-rule="evenodd" d="M328.727 18.667C326.131 18.9449 326.131 22.4312 328.727 22.5662C331.174 22.5662 331.322 18.667 328.727 18.667Z" fill="#E7654B"/>
<path fill-rule="evenodd" clip-rule="evenodd" d="M451.304 51.0605C449.875 51.0605 448.499 52.1962 448.9 53.7527C449.814 56.1192 450.581 58.4857 451.034 60.9952C448.743 57.5168 445.695 54.5944 442.028 52.5059C441.584 52.22 441.14 52.1009 440.713 52.1009C438.832 52.1009 437.473 54.5547 438.971 56.2621C442.176 59.7404 445.076 63.6396 447.524 67.6738C445.538 64.8943 443.404 62.107 441.418 59.4625L440.957 59.0495C440.521 58.4619 439.99 58.2236 439.459 58.2236C437.961 58.2236 436.506 60.1454 437.29 61.694C438.971 64.8943 440.504 67.9597 441.723 71.2951C441.566 71.2951 441.566 71.438 441.418 71.573C440.957 71.0171 440.347 70.6042 439.885 70.0483C439.345 69.6115 438.762 69.4289 438.213 69.4289C436.28 69.4289 434.712 71.6842 436.376 73.5266C440.19 77.8387 443.404 82.7147 445.538 87.8687C447.219 98.4465 447.524 109.024 446.452 119.745C449.814 121.278 453.786 122.112 457.6 122.112C457.139 112.924 457.296 103.878 458.515 94.8253C459.43 87.5907 461.72 80.3482 460.353 73.3836C460.658 71.438 460.962 69.4845 461.267 67.5388C461.494 66.0776 460.187 64.8547 459.003 64.8547C458.602 64.8547 458.21 64.9976 457.905 65.3073C457.296 60.5743 455.772 56.1192 453.324 52.085C452.802 51.3703 452.053 51.0605 451.304 51.0605Z" fill="#F7A285"/>
<path fill-rule="evenodd" clip-rule="evenodd" d="M139.328 23.3164L123.738 33.9796C124.825 42.1202 120.958 49.96 117.812 57.4601C114.656 64.9894 112.128 73.8285 115.639 81.1832C118.43 86.9951 124.768 90.4589 131.051 90.4589C131.744 90.4589 132.437 90.4201 133.12 90.3328C140.04 89.4693 146.191 84.7053 149.778 78.5344C153.382 72.344 154.646 64.9409 154.347 57.7221C153.738 44.6817 148.364 32.3884 139.328 23.3164Z" fill="#0F1C4D"/>
<path fill-rule="evenodd" clip-rule="evenodd" d="M116.744 245.275L87.2031 499.185C96.3603 498.185 105.227 497.759 113.682 497.759C162.998 497.759 198.447 512.254 198.447 512.254C215.778 368.082 181.622 255.968 181.622 255.968L116.744 245.275Z" fill="#E7654B"/>
<path fill-rule="evenodd" clip-rule="evenodd" d="M14.3669 34.96C13.3744 34.96 12.9905 36.1049 12.9905 36.1049L19.2544 50.1738L17.054 51.5807C11.9698 41.0921 9.30136 38.8896 7.9624 38.8896C6.98864 38.8896 6.7171 40.0539 6.7171 40.0539L14.5353 53.4339L12.5129 55.2968C6.00546 48.631 3.02798 46.9525 1.67968 46.9525C0.312709 46.9525 0.602931 48.6504 0.602931 48.6504L10.4249 56.9365L8.86126 58.5666C4.97558 55.976 2.96243 55.1804 1.97 55.1804C0.350154 55.1804 1.36135 57.2567 1.36135 57.2567L13.0747 64.6017C19.2263 75.0902 26.6232 76.2158 26.6232 76.2158L52.7559 149.054C54.9282 155.079 60.415 158.679 66.1546 158.679C68.4299 158.679 70.752 158.116 72.9242 156.903L87.6057 148.666L132.54 123.41L129.918 97.5422C129.806 96.31 128.794 95.4756 127.718 95.4756C127.352 95.4756 126.987 95.5629 126.641 95.7667L80.7425 122.303V122.333L68.9823 129.134C63.5798 120.188 34.5446 70.3262 34.5446 70.3262L36.7636 64.7084C37.7467 62.0887 37.9527 59.2458 37.316 56.4999C35.8273 49.4849 37.5688 44.4395 37.5688 44.4395C37.4939 44.4395 37.419 44.4395 37.3441 44.4395C32.4472 44.4395 33.1775 54.4041 33.1775 54.4041L29.4977 56.5775L23.7955 50.2514C18.7301 37.5118 15.8556 34.96 14.3669 34.96Z" fill="#924430"/>
<path fill-rule="evenodd" clip-rule="evenodd" d="M129.712 94.165C129.347 94.165 128.982 94.2621 128.635 94.4561L82.7651 120.974C83.8419 125.99 85.8363 134.121 89.6191 147.326L134.562 122.07L131.941 96.2123C131.8 94.9995 130.789 94.165 129.712 94.165H129.712Z" fill="#E7654B"/>
<path fill-rule="evenodd" clip-rule="evenodd" d="M106.304 247.497C106.304 247.497 100.424 279.031 93.5046 316.939C92.6806 321.519 91.8192 326.196 90.9578 330.901C81.7257 381.627 71.7352 437.893 71.4824 444.636C71.0049 458.336 74.6097 471.862 81.7726 483.389L125.152 553.229L148.186 590.332L149.796 592.913L152.146 596.677L173.541 631.112L184.974 621.962C181.388 609.155 177.249 595.687 172.708 582.113C172.034 579.95 171.294 577.805 170.564 575.661L170.461 575.322C166.172 562.795 161.584 550.298 156.819 538.296C145.967 511.051 134.178 486.396 122.98 469.999C118.72 463.75 114.553 458.734 110.536 455.173L128.982 378.755L136.753 346.639L140.086 332.997L154.515 273.199L136.557 263.633L106.304 247.497Z" fill="#D4D4D4"/>
<path fill-rule="evenodd" clip-rule="evenodd" d="M137.568 254.134L136.557 263.652L130.218 323.372L130.096 338.615L129.965 351.481L129.843 366.568C129.563 370.488 129.291 374.563 128.982 378.774C126.894 409.998 124.647 448.013 122.98 470.028C122.297 478.945 121.744 485.223 121.314 487.338C120.031 493.635 123.055 520.987 125.152 553.248C125.958 565.464 126.613 578.349 126.866 591.088C126.913 593.233 126.969 595.396 126.969 597.541C127.062 607.952 126.819 618.149 126.108 627.638C125.78 632.189 125.349 636.584 124.769 640.737V640.766L140.443 640.291L140.517 639.796C141.117 637.205 143.869 625.048 146.978 608.631L147.053 608.262C147.736 604.653 148.411 600.869 149.122 596.891C149.347 595.61 149.572 594.281 149.796 592.913C149.956 591.923 150.133 590.953 150.302 589.934C153.083 573.41 155.63 555.033 156.819 538.325C157.924 522.345 157.774 507.936 155.255 498.243L178.916 368.266C178.916 368.266 179.927 363.066 181.566 356.031C182.577 351.791 183.766 346.93 185.096 342.118C186.463 337.131 187.979 332.211 189.515 328.214C198.373 305.121 181.622 255.968 181.622 255.968L137.568 254.134Z" fill="#F7A285"/>
<path fill-rule="evenodd" clip-rule="evenodd" d="M172.708 582.143C165.592 585.752 158.055 588.372 150.283 589.934C149.572 590.089 148.888 590.196 148.186 590.332C143.766 591.079 139.281 591.467 134.806 591.467C132.147 591.467 129.488 591.331 126.838 591.059C126.894 593.204 126.941 595.377 126.941 597.521C127.044 607.923 126.819 618.12 126.108 627.609C125.78 632.189 125.349 636.555 124.769 640.737L140.414 640.271L140.517 639.767C141.117 637.186 143.851 625.048 146.978 608.602L147.025 608.243C147.708 604.633 148.411 600.84 149.094 596.891C149.319 595.581 149.553 594.252 149.796 592.913L152.146 596.677L173.541 631.112L184.974 621.962C181.388 609.155 177.249 595.688 172.708 582.143Z" fill="#7E3C2F"/>
<path fill-rule="evenodd" clip-rule="evenodd" d="M140.414 640.271L124.768 640.766L92.4278 656.717C83.72 660.356 87.3903 665.702 92.5589 665.702C92.7461 665.702 92.924 665.692 93.1019 665.683C127.999 662.908 144.759 669.185 142.455 646.258L140.414 640.271Z" fill="#1B2B66"/>
<path fill-rule="evenodd" clip-rule="evenodd" d="M143.57 92.4873C141.163 92.4873 138.766 92.5649 136.379 92.8172C134.431 94.4861 132.792 96.5236 132.998 99.2695C133.223 102.044 136.379 103.451 136.201 106.333C136.023 109.05 132.437 110.224 133.251 113.212C134.057 116.162 137.212 117.598 138.345 120.402C138.598 121.052 138.748 121.731 138.748 122.439C140.695 121.654 143.036 121.624 145.105 121.624C146.8 121.624 148.644 121.605 150.18 120.79C151.893 119.897 152.371 118.229 153.083 116.531C153.738 114.93 154.693 113.736 156.313 113.076C157.951 112.426 159.768 112.446 161.434 111.902C164.918 110.806 167.464 107.614 168.822 104.218C170.011 101.181 170.414 97.9111 170.592 94.6219C165.807 93.312 160.901 92.6522 155.948 92.6522C155.76 92.6522 155.564 92.6522 155.377 92.6619C155.077 92.6619 154.787 92.6619 154.487 92.6619C150.845 92.6619 147.193 92.4873 143.57 92.4873Z" fill="#924430"/>
<path fill-rule="evenodd" clip-rule="evenodd" d="M136.379 92.8174C135.77 92.895 135.143 92.9435 134.506 93.0502L133.598 93.2055C133.27 93.2637 132.895 93.3122 132.596 93.3898C132.568 93.3898 132.521 93.3898 132.521 93.419C128.832 94.1175 125.583 96.2424 123.382 99.3764C122.624 100.395 121.819 101.598 120.911 102.879C118.691 106.023 113.467 114.416 108.317 122.808C100.171 136.111 98.5045 152.586 103.804 167.353L106.379 174.572L110.087 197.762L111.575 207.231C112.531 213.325 112.353 219.525 111.042 225.531C107.062 243.84 108.195 240.172 101.988 265.641C114.094 268.174 125.405 269.503 137.324 269.503C151.491 269.503 166.509 267.631 184.721 263.682C181.238 250.816 182.174 253.271 179.224 240.308C176.294 227.675 172.408 215.129 173.616 201.973C174.955 187.069 179.852 172.583 182.932 157.845C183.606 154.759 184.168 151.596 184.618 148.482C186.134 137.683 187.399 125.971 186.312 114.755C185.807 109.71 185.348 104.606 183.784 99.8712C183.663 99.5122 183.41 99.2212 183.082 99.0659C179.552 97.465 175.919 96.1357 172.202 95.0587C171.678 94.9326 171.144 94.7773 170.592 94.6221C170.414 97.9113 170.011 101.181 168.803 104.218C167.464 107.614 164.918 110.806 161.434 111.903C159.768 112.446 157.895 112.446 156.313 113.077C154.721 113.707 153.738 114.93 153.083 116.531C152.371 118.2 151.893 119.898 150.18 120.79C148.644 121.576 146.8 121.625 145.105 121.625C143.036 121.625 140.695 121.625 138.747 122.44C138.747 121.731 138.598 121.052 138.345 120.402C137.212 117.598 134.028 116.133 133.251 113.183C132.465 110.253 136.023 109.05 136.201 106.333C136.379 103.452 133.223 101.996 132.998 99.2697C132.792 96.5529 134.431 94.4863 136.379 92.8174Z" fill="#E7654B"/>
<path fill-rule="evenodd" clip-rule="evenodd" d="M134.506 93.0498L133.598 93.2051C133.27 93.2633 132.924 93.3118 132.596 93.3894C132.568 93.3894 132.521 93.3894 132.521 93.4185C128.832 94.1171 125.583 96.2614 123.383 99.376C122.624 100.424 121.791 101.627 120.911 102.879C118.692 106.042 113.467 114.435 108.317 122.827C100.171 136.11 98.5045 152.615 103.804 167.382L106.379 174.572L110.087 197.761C112.156 200.982 114.525 203.932 117.203 206.629C117.39 206.814 117.634 206.901 117.868 206.901C118.111 206.901 118.345 206.814 118.542 206.629C125.246 200.837 133.673 197.703 142.315 197.703C143.626 197.703 144.937 197.781 146.248 197.926C146.276 197.926 146.304 197.926 146.332 197.926C147.053 197.926 147.343 197.033 147.053 196.461C140.339 182.858 133.551 169.158 129.338 154.468C125.527 141.136 123.991 126.912 126.66 113.212C128.027 106.022 130.676 99.1916 134.506 93.0498Z" fill="#642A1F"/>
<path fill-rule="evenodd" clip-rule="evenodd" d="M184.974 621.943L173.541 631.112L167.736 647.771L153.71 653.341C149.702 654.913 150.48 661.054 154.721 661.472C154.721 661.472 171.799 660.007 176.725 658.939C178.41 658.6 179.927 657.707 181.088 656.397C190.395 646.044 195.348 637.884 193.981 631.51C193.7 630.336 186.312 623.35 184.974 621.943Z" fill="#1B2B66"/>
<path fill-rule="evenodd" clip-rule="evenodd" d="M144 65.7266L143.691 70.2771L142.689 85.1222L142.053 94.8055C142.053 94.8249 142.053 94.8831 142.053 94.9025C142.081 95.1645 142.081 95.6884 142.081 96.3482C142.184 100.472 144.094 104.372 147.427 106.458C149.047 107.526 150.91 108.069 152.774 108.069C153.794 108.069 154.815 107.904 155.807 107.584C161.051 105.993 164.562 100.685 164.712 95.0868L164.843 90.5654L166.35 66.299L144 65.7266Z" fill="#924430"/>
<path fill-rule="evenodd" clip-rule="evenodd" d="M163.195 66.6396L143.719 70.2782L142.708 85.1233L142.053 94.8065C142.053 94.826 142.053 94.8842 142.053 94.9036C164.759 94.5154 163.195 66.6396 163.195 66.6396Z" fill="#924430"/>
<path fill-rule="evenodd" clip-rule="evenodd" d="M155.761 12.3525C149.825 12.3525 143.785 14.1184 139.179 17.592C136.426 19.7072 134.057 22.2978 132.194 25.2765C129.216 29.9338 126.239 35.4449 126.033 40.9172C125.883 44.7013 125.499 48.4659 125.096 52.2306C124.975 53.3852 124.844 54.5398 124.75 55.6847C123.963 63.0587 125.078 70.2775 129.038 76.5552C132.606 82.2215 138.626 85.4234 144.862 85.4234C147.137 85.4234 149.441 84.9965 151.669 84.1039C155.929 82.4059 160.976 79.2137 166.678 73.5958C170.77 69.2782 173.719 63.9999 175.311 58.1977C175.311 58.1977 184.646 58.0425 184.113 48.1554C184.113 48.1554 183.747 41.315 179.375 41.315C178.485 41.315 177.437 41.5964 176.191 42.2756C179.141 31.2437 177.708 19.0765 165.976 14.2737C162.83 12.9832 159.319 12.3525 155.761 12.3525Z" fill="#924430"/>
<path fill-rule="evenodd" clip-rule="evenodd" d="M144.113 36.415C144.103 36.415 144.085 36.415 144.075 36.415C142.69 36.5218 141.369 37.1525 140.414 38.2197C139.431 39.3161 138.926 40.8104 139 42.2949C139.075 43.7891 139.731 45.6423 141.323 45.9625C141.5 45.9916 141.66 46.011 141.828 46.011C143.298 46.011 144.216 44.575 144.628 43.1875C145.058 41.7224 145.236 40.1506 145.105 38.6079C145.283 38.4041 144.843 36.415 144.113 36.415Z" fill="#E7654B"/>
<path fill-rule="evenodd" clip-rule="evenodd" d="M136.351 92.8174C135.414 92.895 134.506 93.0211 133.579 93.2055C132.942 93.9138 132.418 94.7191 132.034 95.5826C130.873 98.3576 131.257 100.948 133.017 103.248C133.776 104.218 134.918 105.421 134.412 106.78C133.926 107.954 132.793 108.769 132.137 109.836C130.602 112.349 131.987 115.192 133.729 117.161C134.815 118.384 136.201 119.509 136.828 121.081C137.156 121.867 137.212 122.731 136.959 123.536C136.454 123.953 136.023 124.448 135.695 125.03C135.349 125.651 135.854 126.301 136.444 126.301C136.575 126.301 136.706 126.272 136.828 126.204C137.484 125.836 137.989 125.292 138.298 124.613C139.871 123.429 142.081 123.342 144.122 123.342C144.487 123.342 144.843 123.342 145.18 123.342C145.573 123.342 145.957 123.342 146.322 123.323C148.008 123.245 149.777 123.012 151.266 122.129C152.727 121.285 153.513 119.898 154.113 118.355C154.468 117.501 154.749 116.608 155.302 115.871C155.957 114.988 156.912 114.59 157.923 114.357C159.618 113.969 161.304 113.892 162.923 113.154C166.126 111.767 168.569 108.895 170.039 105.576C171.5 102.278 171.978 98.6681 172.23 95.0878C171.706 94.9326 171.172 94.7773 170.564 94.593C170.386 97.8822 170.011 101.181 168.803 104.218C167.436 107.585 164.89 110.777 161.435 111.903C159.74 112.427 157.895 112.427 156.313 113.047C154.721 113.707 153.71 114.93 153.055 116.531C152.352 118.2 151.865 119.898 150.18 120.761C148.616 121.576 146.772 121.605 145.086 121.605C143.036 121.605 140.695 121.625 138.72 122.411C138.72 121.702 138.598 121.023 138.345 120.402C137.184 117.579 134.029 116.114 133.223 113.183C132.437 110.224 135.995 109.021 136.173 106.304C136.379 103.432 133.195 101.996 132.971 99.2503C132.774 96.5238 134.412 94.4571 136.351 92.8174Z" fill="#F8AC5E"/>
<path fill-rule="evenodd" clip-rule="evenodd" d="M111.07 225.56C111.07 225.56 106.126 237.455 99.7405 269.513C85.6115 340.158 63.7858 469.116 67.9244 504.279C67.9244 504.279 84.001 520.608 109.993 520.608C117.952 520.608 126.838 519.075 136.482 515.078C136.482 515.078 140.892 411.046 171.125 342.719C173.036 338.411 175.161 334.22 177.324 330.019C180.882 323.081 194.337 292.518 181.013 248.516L111.07 225.56Z" fill="#E7654B"/>
<path fill-rule="evenodd" clip-rule="evenodd" d="M117.961 200.274C117.961 200.274 149.899 279.836 117.961 353.703C117.961 353.703 125.583 369.033 139.862 369.033C142.886 369.033 146.21 368.344 149.824 366.675C149.796 366.675 189.946 301.046 163.073 203.67L117.961 200.274Z" fill="#642A1F"/>
<path fill-rule="evenodd" clip-rule="evenodd" d="M129.74 208.832C128.354 208.832 126.959 208.948 125.583 209.191C124.843 209.298 124.768 210.423 125.377 210.734C137.212 217.351 144.403 229.8 148.588 242.656C153.41 257.559 154.262 273.326 156.744 288.753C158.232 297.961 160.348 307.111 164.103 315.629C164.234 315.94 164.468 316.066 164.712 316.066C164.983 316.066 165.273 315.911 165.442 315.659C165.723 316.658 166.004 317.648 166.303 318.637C166.434 319.055 166.762 319.239 167.09 319.239C167.586 319.239 168.092 318.822 167.895 318.172C163.354 303.453 162.287 287.967 160.751 272.676C159.365 259.053 157.493 245.304 152.502 232.516C149.899 225.821 146.444 219.524 141.95 214.004C142.053 214.042 142.156 214.062 142.249 214.062C142.989 214.062 143.467 212.946 142.689 212.49C138.729 210.084 134.253 208.832 129.74 208.832Z" fill="#BA422D"/>
<path fill-rule="evenodd" clip-rule="evenodd" d="M107.259 171.981C106.473 171.981 105.686 172.467 105.49 173.476C103.982 181.607 103.505 192.541 103.505 192.541C102.868 195.879 93.9168 197.111 89.9561 197.48C89.7034 197.509 89.4506 197.519 89.1977 197.519C88.2427 197.519 87.297 197.315 86.4169 196.908C77.7934 192.619 72.6343 191.455 69.5819 191.455C68.374 191.455 67.4939 191.639 66.8665 191.882C66.0332 192.221 66.0051 193.424 66.8103 193.842L79.432 200.304C74.8627 198.576 71.4826 197.975 69.0107 197.975C66.3234 197.975 64.6943 198.683 63.7393 199.392C63.0089 199.964 63.1774 201.138 64.0388 201.429C69.7879 203.418 81.7728 207.959 86.9505 209.929C87.9337 210.307 88.9637 210.491 90.003 210.491C90.6678 210.491 91.3325 210.414 91.9973 210.268L102.943 207.726C104.244 207.425 105.574 207.28 106.904 207.28C108.935 207.28 110.977 207.629 112.933 208.328C117.755 210.055 122.652 211.52 127.596 212.723L127.091 196.141C126.557 196.209 126.014 196.238 125.48 196.238C121.557 196.238 117.961 194.676 117.961 194.676C112.184 193.007 109.937 181.762 109.104 173.66C108.973 172.544 108.111 171.981 107.259 171.981Z" fill="#924430"/>
<path fill-rule="evenodd" clip-rule="evenodd" d="M180.273 99.1143C175.816 99.1143 170.704 104.441 170.058 113.416C169.206 125.603 168.494 144.979 167.942 162.104C167.315 181.403 166.931 197.82 166.931 197.82C166.931 197.82 130.04 194.647 118.72 194.647C118.448 194.647 118.195 194.647 117.961 194.657L112.933 208.328C131.688 214.906 162.586 221.232 174.197 221.232C175.283 221.232 176.2 221.184 176.921 221.067C181.771 220.281 186.584 217.118 187.651 212.121C191.584 193.735 192.97 176.454 193.148 161.473C193.4 138.235 190.751 120.402 190.198 112.213C189.796 106.411 186.584 99.9487 181.041 99.1725C180.788 99.1337 180.535 99.1143 180.273 99.1143Z" fill="#924430"/>
<path fill-rule="evenodd" clip-rule="evenodd" d="M141.744 188.621C135.021 188.621 127.053 190.203 117.961 194.676C117.961 194.676 152.577 208.22 161.912 297.961C163.607 314.222 167.942 330.115 175.255 344.601C181.107 356.215 188.682 366.675 196.94 366.675C198.831 366.675 200.76 366.132 202.708 364.919C203.11 364.657 203.447 364.24 203.597 363.793C205.161 359.398 212.623 335.326 204.402 297.146C200.844 280.622 192.698 265.67 181.669 253.144C174.375 244.829 166.378 228.674 166.931 197.819C166.931 197.819 157.961 188.621 141.744 188.621Z" fill="#642A1F"/>
<path fill-rule="evenodd" clip-rule="evenodd" d="M180.517 98.4453C175.845 98.4453 168.569 105.198 167.942 114.251C167.081 126.438 168.494 144.979 167.942 162.105C171.023 163.123 175.367 164.171 180.292 164.171C184.328 164.171 188.738 163.463 193.148 161.474C193.401 138.236 190.751 120.402 190.198 112.213C189.796 106.411 186.687 99.27 181.135 98.4841C180.938 98.4647 180.732 98.4453 180.517 98.4453Z" fill="#E7654B"/>
<path fill-rule="evenodd" clip-rule="evenodd" d="M160.451 5.02734C159.571 5.02734 158.7 5.08556 157.82 5.20199C150.479 6.11404 129.234 10.587 119.169 28.5757C117.652 31.2925 116.369 34.3294 116.547 37.4925C116.725 40.6265 118.794 43.8381 121.791 44.2844C122.062 44.3232 122.334 44.3426 122.596 44.3426C124.103 44.3426 125.573 43.7701 126.987 43.188C135.086 39.8697 143.345 36.464 149.955 30.6133C149.721 32.7867 148.813 34.7952 147.38 36.4155C151.95 35.2124 156.182 33.0196 159.871 29.9826V30.72L159.44 31.1567C159.665 31.7097 159.843 32.2822 160.049 32.8643C160.32 34.3294 160.751 35.7363 161.331 37.0656C164.431 48.6021 164.412 60.7886 161.285 72.2863C159.964 76.9727 158.176 82.0957 160.17 86.5396C161.884 90.3333 165.919 92.138 170.039 92.138C172.005 92.138 173.981 91.7305 175.741 90.9349C184.346 87.0053 188.56 76.8175 189.992 67.2215C192.015 53.5407 189.842 39.3166 184.14 26.8487C183.56 22.7153 182.071 18.7663 179.721 15.3413C175.348 9.02484 167.932 5.02734 160.451 5.02734Z" fill="#0F1C4D"/>
<path fill-rule="evenodd" clip-rule="evenodd" d="M168.701 87.5293L166.407 90.3334C165.798 90.052 165.171 89.9162 164.543 89.9162C162.952 89.9162 161.407 90.7894 160.573 92.2933C159.384 94.4085 159.918 97.1059 161.809 98.5419C161.688 98.5321 161.575 98.5321 161.454 98.5321C159.646 98.5321 157.783 99.0949 156.407 100.317C154.946 101.627 154.141 103.801 154.675 105.732C155.115 107.439 156.744 108.788 158.42 108.788C158.542 108.788 158.654 108.778 158.776 108.759C156.51 109.195 154.319 110.777 153.841 113.106C153.382 115.298 155.133 117.831 157.212 117.831C157.409 117.831 157.615 117.811 157.821 117.763C155.227 119.092 152.502 120.586 151.014 123.167C149.553 125.758 150.03 129.784 152.699 130.939C149.824 131.279 146.847 132.637 145.536 135.276C144.225 137.944 145.386 141.893 148.214 142.543C145.836 143.853 143.392 145.445 142.259 147.958C141.145 150.49 142.109 154.177 144.731 154.779C136.987 159.805 137.811 171.749 146.145 175.62C145.105 171.807 146.014 167.673 148.542 164.695C149.927 163.074 151.772 161.842 152.699 159.902C153.607 157.971 152.877 154.963 150.808 154.779C152.952 154.255 154.113 151.645 153.86 149.394C153.635 147.123 152.371 145.105 151.135 143.223C155.424 142.097 157.24 136.819 154.59 133.161C157.015 131.851 159.468 130.279 160.723 127.776C161.987 125.292 161.557 121.654 159.159 120.324C157.624 114.357 160.798 108.167 166.425 106.149C167.24 104.034 166.828 101.627 165.367 99.9293C170.189 97.9888 171.856 91.7694 168.701 87.5293Z" fill="#0F1C4D"/>
<path fill-rule="evenodd" clip-rule="evenodd" d="M240.582 574.823L214.273 576.756L214.14 647.268L221.163 660.073L234.517 660.764C234.847 660.78 235.169 660.788 235.491 660.788C242.829 660.788 249.514 656.326 252.287 649.334C239.474 643.003 240.582 574.823 240.582 574.823Z" fill="#642A1F"/>
<path fill-rule="evenodd" clip-rule="evenodd" d="M213.731 645.462C213.268 645.462 213.032 645.478 213.032 645.478L212.349 677.018L286.027 677.293C286.718 674.402 285.336 665.172 282.586 663.797L251.596 648.369C251.596 648.369 249.42 651.511 243.968 651.511C242.287 651.511 240.299 651.212 237.966 650.435C224.187 645.847 216.064 645.462 213.731 645.462Z" fill="#F3D5B9"/>
<path d="M284.236 664.763L211.933 663.247" stroke="#623D35" stroke-width="0.183727" stroke-miterlimit="17.5317" stroke-linecap="round"/>
<path d="M213.173 646.443C213.173 646.443 222.537 655.391 221.571 663.522" stroke="#623D35" stroke-width="0.183727" stroke-miterlimit="17.5317" stroke-linecap="round"/>
<path fill-rule="evenodd" clip-rule="evenodd" d="M345.66 574.273L317.293 574.548L319.909 646.993L326.932 660.073L340.294 660.765C340.42 660.772 340.554 660.772 340.687 660.772C348.354 660.772 358.198 649.334 358.198 649.334C345.11 644.652 345.66 574.273 345.66 574.273Z" fill="#642A1F"/>
<path fill-rule="evenodd" clip-rule="evenodd" d="M319.642 645.462C319.178 645.462 318.943 645.478 318.943 645.478L317.843 677.018L389.738 677.293C390.422 674.402 391.246 665.172 388.497 663.797L357.506 648.369C357.506 648.369 355.252 651.511 349.753 651.511C348.064 651.511 346.068 651.212 343.735 650.435C330.074 645.847 321.967 645.462 319.642 645.462Z" fill="#F3D5B9"/>
<path d="M390.146 664.763L319.492 663.247" stroke="#623D35" stroke-width="0.183727" stroke-miterlimit="17.5317" stroke-linecap="round"/>
<path d="M319.084 646.443C319.084 646.443 328.307 655.391 327.348 663.522" stroke="#623D35" stroke-width="0.183727" stroke-miterlimit="17.5317" stroke-linecap="round"/>
<path fill-rule="evenodd" clip-rule="evenodd" d="M354.615 597.691C354.615 597.691 340.93 600.04 328.55 600.04C323.444 600.04 318.565 599.64 314.952 598.516C315.219 609.436 316.02 625.116 318.51 625.116C318.557 625.116 318.612 625.108 318.667 625.092C326.264 623.411 332.187 622.916 336.838 622.916C343.311 622.916 347.341 623.867 350.043 623.867C351.111 623.867 351.968 623.717 352.682 623.301C356.131 621.101 355.44 607.055 354.615 597.691Z" fill="#0B122A"/>
<path fill-rule="evenodd" clip-rule="evenodd" d="M213.582 608.846C211.799 615.594 210.832 626.199 214.965 626.883C224.454 628.297 232.388 629.782 238.288 629.782C243.355 629.782 246.922 628.69 248.705 625.508C250.221 622.201 251.187 618.485 251.462 614.769C250.629 614.769 218.68 610.771 213.582 608.846Z" fill="#0B122A"/>
<path fill-rule="evenodd" clip-rule="evenodd" d="M281.196 283.943C249.404 283.943 205.773 292.317 199.261 312.051C199.261 312.051 210.557 436.83 207.25 464.506C204.218 491.914 194.579 602.923 211.516 608.846C209.732 615.594 208.766 626.199 212.898 626.883C222.388 628.297 230.322 629.782 236.245 629.782C241.328 629.782 244.934 628.69 246.78 625.508C248.288 622.201 249.121 618.485 249.396 614.769C253.112 613.387 255.727 610.496 256.552 605.264C259.86 585.978 266.608 568.767 263.442 546.181C260.135 523.596 257.935 491.231 267.707 455.833C276.679 422.776 267.652 396.994 275.885 396.994C276.498 396.994 277.213 397.143 278.038 397.434C289.743 401.841 298.565 446.328 302.83 461.34C306.821 475.252 290.3 564.493 306.137 590.66C307.928 593.693 310.269 596.309 313.019 598.516C313.294 609.435 314.087 625.115 316.578 625.115C316.633 625.115 316.688 625.108 316.743 625.092C324.339 623.411 330.27 622.916 334.944 622.916C341.433 622.916 345.486 623.866 348.165 623.866C349.218 623.866 350.066 623.717 350.758 623.301C354.198 621.101 353.515 607.055 352.682 597.691C356.814 593.968 359.297 588.594 359.572 583.087C361.779 560.502 361.913 556.92 359.847 508.584C357.647 460.374 369.486 446.328 354.473 408.73C339.328 370.992 331.613 292.765 305.996 286.292C299.876 284.752 291.109 283.943 281.196 283.943Z" fill="#0F1C4D"/>
<path d="M225.57 610.496C225.57 610.496 238.241 585.978 229.977 562.427C221.846 539.017 211.932 489.165 218.272 461.206C224.604 433.107 223.637 365.21 215.515 347.998" stroke="white" stroke-width="0.506562" stroke-miterlimit="17.5317" stroke-linecap="round"/>
<path fill-rule="evenodd" clip-rule="evenodd" d="M242.405 56.9766C232.946 56.9766 225.617 62.8369 221.846 71.7217C220.746 74.754 219.922 77.9198 219.78 81.227C219.372 85.4927 219.372 89.7662 219.505 94.0318C218.131 94.1732 216.756 94.9981 215.923 96.2393C213.998 99.6801 216.064 103.946 220.055 104.362L220.888 104.503C223.362 115.933 227.769 121.44 227.769 121.44L226.395 148.157C231.964 166.351 239.113 174.568 245.563 174.568C252.342 174.568 258.352 165.487 260.96 149.399L260.685 122.265C263.858 118.824 266.608 112.626 268.266 105.737H269.499C273.356 105.328 275.697 101.055 273.772 97.614C272.948 96.2393 271.431 95.273 269.915 95.1316C270.332 90.0411 269.774 84.9428 268.54 79.8445C264.683 64.9736 256.553 57.2594 243.057 56.9844C242.837 56.9766 242.625 56.9766 242.405 56.9766Z" fill="#642A1F"/>
<path fill-rule="evenodd" clip-rule="evenodd" d="M227.911 121.44C227.911 121.44 237.628 135.282 252.263 135.282C254.958 135.282 257.825 134.811 260.826 133.695L260.685 122.265C255.901 126.319 250.999 129.225 245.264 129.225C240.268 129.225 234.643 127.018 227.911 121.44H227.911Z" fill="#0F1C4D" fill-opacity="0.4469"/>
<path d="M219.922 96.7891C219.922 96.7891 217.306 96.9226 217.581 99.13C217.856 101.471 220.197 100.505 220.197 100.505" stroke="#0F1C4D" stroke-width="0.367454" stroke-miterlimit="17.5317" stroke-linecap="round"/>
<path fill-rule="evenodd" clip-rule="evenodd" d="M238.406 26.5986C235.649 26.5986 236.976 40.0083 233.693 42.7971C233.229 43.1977 232.86 43.3784 232.577 43.3784C230.48 43.3784 232.498 33.9123 229.835 31.367C229.451 31.0371 229.152 30.88 228.916 30.88C227.204 30.88 229.011 38.9006 229.011 43.6298C229.011 45.8843 228.476 46.827 227.683 46.827C226.591 46.827 224.996 45.0202 223.637 42.3886C222.671 40.4482 221.383 39.5998 220.275 39.5998C218.869 39.5998 217.761 40.9745 217.989 43.2134C218.225 46.5599 223.677 50.582 222.035 50.582C221.713 50.582 221.131 50.4328 220.197 50.1028C218.358 49.4273 216.504 49.1052 215.035 49.1052C212.011 49.1052 210.652 50.4878 214.548 52.9937C216.834 54.4392 218.57 54.6513 219.442 54.6513C219.796 54.6513 220 54.612 220.039 54.612C220.142 54.612 219.089 54.8555 216.481 56.5759C212.089 59.4982 212.946 61.1794 215.734 61.1794C216.881 61.1794 218.35 60.8966 219.922 60.2917C221.108 59.781 222.38 59.5297 223.661 59.5297C225.515 59.5297 227.384 60.056 229.011 61.1165C229.011 61.1165 264.958 66.0735 274.181 68.006C278.069 68.8858 279.664 69.4671 280.489 69.4671C281.589 69.4671 281.298 68.4223 283.27 65.665C286.719 60.7002 273.356 59.8753 277.629 59.8753C281.762 59.8753 284.786 58.2256 281.07 55.4683C277.213 52.5774 270.74 53.8186 276.805 51.7525C281.416 50.1814 282.115 46.285 279.326 46.285C278.454 46.285 277.245 46.6699 275.697 47.6204C273.969 48.7281 272.421 49.1523 271.196 49.1523C267.841 49.1523 266.883 45.9786 271.015 44.8631C275.618 43.5512 274.377 38.3036 271.738 38.3036C271.054 38.3036 270.284 38.6493 269.499 39.4977C266.993 42.2864 260.017 44.6353 257.872 44.6353C256.851 44.6353 256.938 44.0932 259.169 42.7971C264.471 39.6155 264.385 29.4188 262.303 29.4188C261.682 29.4188 260.889 30.3301 260.001 32.6082C256.922 40.4089 253.41 41.1945 249.946 41.1945C249.066 41.1945 248.194 41.1474 247.33 41.1474C243.198 41.1474 255.728 32.6082 254.212 27.7848C253.992 27.0621 253.654 26.7479 253.23 26.7479C250.732 26.7479 245.146 37.5023 241.265 40.3225C240.723 40.7153 240.354 40.896 240.119 40.896C238.367 40.896 243.756 31.2571 239.749 27.3763C239.215 26.8422 238.775 26.5986 238.406 26.5986Z" fill="#0F1C4D"/>
<path fill-rule="evenodd" clip-rule="evenodd" d="M256.167 48.8926C255.539 48.8926 254.887 48.924 254.211 48.9947C244.03 50.1888 244.258 53.2839 238.194 53.2839C237.95 53.2839 237.683 53.2761 237.408 53.2682C233.559 53.8181 229.835 55.3343 226.803 57.8088C221.021 62.0823 221.021 62.0823 220.613 65.798C220.196 69.6552 214.548 79.9854 217.164 84.251C217.164 84.251 216.858 93.0101 219.23 93.0101C219.615 93.0101 220.071 92.7823 220.613 92.2403C224.462 88.3831 225.153 77.3694 232.451 74.2036C236.324 72.5932 241.242 71.297 246.104 71.297C250.393 71.297 254.643 72.3104 258.068 75.0285C265.366 80.8102 265.783 86.867 265.366 89.8993C265.115 91.7454 266.859 93.7486 268.454 93.7486C269.467 93.7486 270.418 92.9316 270.74 90.7241C271.431 84.9423 269.915 83.8425 273.081 78.4692C276.113 73.096 271.839 72.6875 273.356 70.0715C274.872 67.3142 279.829 68.9639 274.597 62.3572C269.561 56.2926 265.5 48.8926 256.167 48.8926Z" fill="#0141B3"/>
<path d="M246.223 54.3682C246.223 54.3682 254.628 67.7307 266.058 69.6553" stroke="white" stroke-width="0.230971" stroke-miterlimit="17.5317" stroke-linecap="round"/>
<path d="M240.165 63.874C237.275 65.2488 234.109 66.0736 230.935 66.215C228.044 66.3486 225.57 68.1397 224.462 70.7556" stroke="white" stroke-width="0.230971" stroke-miterlimit="17.5317" stroke-linecap="round"/>
<path d="M220.33 78.8861C220.33 78.8861 223.779 75.0289 226.803 74.2041" stroke="white" stroke-width="0.230971" stroke-miterlimit="17.5317" stroke-linecap="round"/>
<path fill-rule="evenodd" clip-rule="evenodd" d="M334.583 267.124C328.26 267.124 318.825 273.117 312.446 273.117C312.124 273.117 311.81 273.102 311.511 273.07L358.881 390.552C359.989 393.584 361.638 396.475 363.571 399.091C367.381 404.355 373.846 412.642 376.093 412.642C376.195 412.642 376.289 412.627 376.376 412.587C376.957 412.328 377.185 411.629 377.185 410.718C378.135 414.041 379.133 417.513 379.683 419.335C380.225 421.158 380.712 421.959 381.073 421.959C382.904 421.959 381.678 401.409 370.177 387.386C362.738 378.431 335.887 278.31 335.33 267.147C335.086 267.131 334.835 267.124 334.583 267.124Z" fill="#642A1F"/>
<path fill-rule="evenodd" clip-rule="evenodd" d="M245.397 383.529C245.397 383.529 252.593 404.732 257.197 404.732C257.401 404.732 257.597 404.685 257.794 404.598C262.476 402.532 258.21 390.411 257.794 388.62C257.385 386.97 245.397 383.529 245.397 383.529Z" fill="#642A1F"/>
<path fill-rule="evenodd" clip-rule="evenodd" d="M221.791 140.883C211.995 140.883 189.991 150.899 172.402 225.285C168.412 242.772 140.728 287.675 183.283 310.951C184.602 311.658 187.155 311.886 189.858 311.886C194.485 311.886 199.536 311.226 199.536 311.226C199.402 311.909 199.402 322.106 203.943 325.547C214.603 325.547 224.116 324.298 238.123 324.298C247.817 324.298 259.671 324.895 275.563 326.922C282.751 327.857 288.714 328.336 293.883 328.336C308.51 328.336 316.782 324.534 328.581 316.591C329.823 315.767 324.041 298.688 314.952 278.994C314.952 278.994 319.5 279.458 324.764 279.458C331.017 279.458 338.283 278.806 340.153 275.97C358.197 248.42 308.887 169.918 288.235 155.322C280.795 150.09 275.147 146.783 261.101 144.301C260.991 148.433 260.245 152.282 249.208 152.282C246.623 152.282 243.465 152.07 239.616 151.598C228.461 150.224 226.67 141.96 226.67 141.96C226.073 141.559 224.344 140.883 221.791 140.883Z" fill="#F8AC5E"/>
<path d="M296.499 218.536L315.227 279.135" stroke="white" stroke-width="0.551181" stroke-miterlimit="17.5317"/>
<path d="M262.067 144.442C262.067 144.442 265.092 154.497 241.957 151.873C227.769 150.09 225.845 141.276 225.845 141.276" stroke="#FFE4DF" stroke-width="0.551181" stroke-miterlimit="17.5317" stroke-linecap="round"/>
<path fill-rule="evenodd" clip-rule="evenodd" d="M218.68 307.918L191.547 312.184C206.284 340.284 229.427 362.178 245.398 383.529C245.398 383.529 263.159 412.336 267.943 412.336C268.815 412.336 269.255 411.386 269.09 409.147C267.299 385.729 263.026 388.486 256.419 378.023C247.189 363.285 226.253 323.897 218.68 307.918Z" fill="#642A1F"/>
<path d="M218.68 307.919C218.68 307.919 206.7 286.708 207.109 264.398C207.25 254.209 217.581 225.285 217.581 225.285" stroke="white" stroke-width="0.551181" stroke-miterlimit="17.5317"/>
</svg>
