<svg width="436" height="810" viewBox="0 0 436 810" fill="none" xmlns="http://www.w3.org/2000/svg">
<path fill-rule="evenodd" clip-rule="evenodd" d="M88.7767 529.452C88.2334 529.452 87.6963 529.539 87.1778 529.711C80.8992 531.335 74.1885 532.199 68.9964 535.99C75.7072 570.192 80.6831 604.721 83.7144 639.46C72.892 647.146 62.6067 655.697 51.8955 663.383C54.6242 665.358 57.8407 666.167 61.1806 666.167C65.5207 666.167 70.0583 664.796 73.9724 662.839C80.8992 659.376 86.9617 654.184 94.1046 651.369C91.6166 637.404 91.7215 623.223 91.8327 609.154C92.0487 584.045 92.1537 559.042 92.3698 533.934C92.3698 532.632 92.2648 530.903 91.1844 530.039C90.4004 529.65 89.5855 529.452 88.7767 529.452Z" fill="#642A1F"/>
<path fill-rule="evenodd" clip-rule="evenodd" d="M81.6583 636.972C72.8918 647.251 58.4949 652.338 49.1851 662.296C48.648 662.839 48.3208 663.487 48.1047 664.247C47.9936 665.759 49.7284 666.735 51.1359 667.167C53.2226 667.716 55.3217 667.951 57.4207 667.951C64.9216 667.951 72.4535 664.907 79.3864 661.864L96.2713 654.505C96.5923 654.289 97.0245 654.073 97.2405 653.745C97.4566 653.208 97.4566 652.776 97.2405 652.233C96.2713 648.658 95.1847 644.763 94.2155 641.083C92.3696 641.411 91.2892 643.571 89.4494 643.787C89.2704 643.818 89.0914 643.837 88.9247 643.837C87.2825 643.837 86.2206 642.479 85.3378 641.299L81.6583 636.972Z" fill="#0141B3"/>
<path fill-rule="evenodd" clip-rule="evenodd" d="M131.998 529.365C131.245 529.365 130.498 529.557 129.819 529.927C128.634 530.902 128.523 532.526 128.634 533.934C128.739 558.937 128.955 583.934 129.066 609.048C129.171 623.223 129.282 637.404 126.794 651.368C134.042 654.072 139.993 659.271 146.92 662.734C150.809 664.734 155.316 666.093 159.631 666.093C162.996 666.093 166.25 665.265 169.003 663.271C158.286 655.48 148.007 647.035 137.289 639.355C140.215 604.609 145.191 570.08 152.007 535.99C146.704 532.094 139.993 531.224 133.721 529.711C133.159 529.476 132.572 529.365 131.998 529.365Z" fill="#642A1F"/>
<path fill-rule="evenodd" clip-rule="evenodd" d="M136.968 636.86C135.881 638.811 134.801 640.762 133.504 642.602C133.066 642.818 132.745 642.923 132.313 643.034C131.881 643.25 131.658 643.25 131.337 643.25C129.819 643.139 128.633 642.059 128.195 640.651C127.991 639.614 127.182 639.145 126.343 639.145C125.429 639.145 124.472 639.694 124.194 640.651C123.435 643.034 122.571 645.522 121.923 648.01C121.811 648.337 121.811 648.658 122.028 648.985C121.497 651.325 121.176 654.4 121.886 654.4C121.898 654.4 121.91 654.4 121.923 654.4C122.787 654.245 123.657 654.171 124.522 654.171C129.831 654.171 135.109 656.832 139.672 659.808C144.975 663.166 150.167 667.278 156.34 668.574C157.958 668.926 159.594 669.068 161.236 669.068C165.2 669.068 169.213 668.228 173.114 667.383C171.923 665.111 170.299 663.271 168.459 661.759C158.501 652.665 148.543 643.466 136.968 636.86Z" fill="#0141B3"/>
<path fill-rule="evenodd" clip-rule="evenodd" d="M57.5044 293.548C55.8962 293.159 54.1521 293.385 52.807 294.273C52.3869 294.172 51.9422 294.172 51.5734 294.305L48.9698 293.568C48.8932 293.543 48.8152 293.524 48.7432 293.507C46.7389 293.023 44.7293 293.953 43.6824 295.631C42.7548 297.63 41.9538 299.551 41.2348 301.607C41.1067 301.69 41.082 301.792 41.0559 301.9C37.33 309.46 34.6141 317.492 32.6317 325.695C26.1321 340.605 18.3412 354.867 14.1137 370.994C11.1329 382.855 8.65545 394.947 6.07457 407.019C4.78511 413.274 3.32843 418.829 4.71705 424.62C4.80141 425.638 4.89032 426.663 5.05514 427.82C5.27342 429.493 6.45062 430.482 7.8728 430.826C9.76904 431.284 12.0995 430.603 13.1506 428.881C16.6489 423.604 17.1997 416.726 14.6082 410.866C16.6619 401.448 20.8647 391.889 23.452 383.495C24.3741 380.6 25.1881 377.678 26.1102 374.782C26.6579 374.356 27.1021 373.911 27.3638 373.301C30.5682 367.4 33.0927 361.106 34.9051 354.526C38.0215 347.15 41.9579 340.086 46.449 333.486C53.8976 322.927 59.5962 313.17 61.8073 300.342C62.4482 296.533 60.1748 294.193 57.5044 293.548Z" fill="#642A1F"/>
<path fill-rule="evenodd" clip-rule="evenodd" d="M141.882 289.465C139.129 289.465 136.369 291.206 136.098 295.058C135.233 308.047 138.481 318.87 143.136 330.884C146.056 338.354 148.111 346.145 149.414 354.047C149.63 360.869 150.606 367.58 152.445 374.068C152.55 374.723 152.877 375.26 153.199 375.803C153.415 378.834 153.631 381.865 153.853 384.897C154.39 393.663 156.23 403.942 156.014 413.579C152.007 418.666 150.927 425.371 153.199 431.433C153.816 433.353 155.884 434.563 157.823 434.563C159.28 434.563 160.669 433.878 161.317 432.304C161.749 431.217 161.965 430.242 162.292 429.273C164.996 423.97 164.996 418.228 165.107 411.845C165.54 399.503 165.972 387.169 165.756 374.939C165.54 358.27 161.212 342.577 158.502 326.556C158.502 318.117 157.637 309.671 155.909 301.337C155.909 301.232 155.909 301.232 155.798 301.121C155.582 298.954 155.254 296.898 154.822 294.737C154.199 292.86 152.464 291.484 150.402 291.484C150.328 291.484 150.248 291.484 150.167 291.49L147.463 291.595C147.142 291.379 146.704 291.274 146.272 291.274C145.179 290.095 143.531 289.465 141.882 289.465Z" fill="#642A1F"/>
<path fill-rule="evenodd" clip-rule="evenodd" d="M118.755 380.174C114.243 380.174 109.674 380.853 105.47 382.081C84.4733 388.249 58.0625 405.782 59.038 427.649C59.9023 447.238 60.6616 466.827 61.5259 486.416C61.8531 493.67 62.1742 500.924 64.125 507.85C65.3165 512.067 67.0451 515.969 67.5884 520.297C68.3416 527.223 65.6376 534.039 62.9335 540.429C69.6134 545.436 77.5774 547.954 85.5537 547.954C93.0855 547.954 100.623 545.707 107.093 541.182C106.007 538.589 104.278 536.206 102.222 534.366C105.575 531.224 105.791 526.032 105.791 521.377C105.902 504.708 107.414 488.039 110.341 471.593C112.181 488.472 114.557 505.14 116.403 522.025C116.724 525.056 117.156 528.199 118.891 530.687C120.101 532.539 122.33 533.916 124.503 533.916C125.25 533.916 125.991 533.749 126.682 533.391C125.17 535.447 124.41 537.935 124.41 540.429C127.942 541.163 131.529 541.521 135.109 541.521C142.629 541.521 150.136 539.935 157.094 536.854L151.686 532.848C155.797 531.878 158.612 527.76 159.372 523.649C160.236 519.537 159.477 515.209 158.717 510.987C153.093 478.841 149.63 446.262 148.438 413.579C148.111 406.214 147.79 398.534 144.11 392.144C138.999 383.662 128.997 380.174 118.755 380.174Z" fill="#0F1C4D"/>
<path fill-rule="evenodd" clip-rule="evenodd" d="M102.515 240.608C102.048 240.608 101.588 240.645 101.134 240.726C96.2271 241.164 91.3201 240.837 86.9603 242.781L68.0972 251.443C63.2959 253.61 58.5008 255.771 54.6821 259.129C47.3807 265.408 44.6504 274.711 42.256 283.478C40.838 288.781 39.42 293.979 38.002 299.178C43.1267 302.641 49.0101 304.913 55.2294 305.882C58.2831 344.091 56.8651 381.54 52.9407 419.532C63.2088 426.959 76.4932 429.595 89.8337 429.595C94.7718 429.595 99.7161 429.237 104.511 428.62C122.174 426.459 133.406 425.268 150.851 421.909C144.526 385.33 145.727 341.93 145.403 305.018C151.834 303.721 157.724 300.258 161.971 295.276C157.612 286.509 153.14 277.959 148.78 269.192C146.162 264.105 143.438 258.697 138.643 255.018C130.135 248.739 117.485 248.955 108.653 243.004C107.565 242.028 106.147 241.269 104.841 240.837C104.032 240.701 103.261 240.608 102.515 240.608Z" fill="#E7654B"/>
<path fill-rule="evenodd" clip-rule="evenodd" d="M105.605 232.148C86.6705 232.148 67.2483 237.248 50.9191 245.49L59.4696 253.065C50.9191 259.343 50.5919 271.789 51.1352 282.396C52.9749 323.851 54.4874 365.844 45.832 406.43C57.6298 411.554 70.3351 414.165 83.1639 414.165C86.3372 414.165 89.5166 414.005 92.696 413.684C88.8004 404.269 88.0411 393.768 87.3928 383.594C84.3616 338.569 81.8736 293.545 80.0339 248.521C85.2444 246.193 90.8501 245.027 96.4804 245.027C101.839 245.027 107.216 246.082 112.285 248.194C116.619 302.417 119.107 356.751 119.755 411.301C133.825 411.085 147.462 406.214 158.285 397.231C162.835 354.695 151.79 312.054 140.968 270.598C138.807 262.807 136.424 254.361 130.145 249.274C134.689 247.113 140.103 241.915 136.745 238.131C135.776 237.155 134.473 236.507 133.065 236.18C124.33 233.414 115.026 232.148 105.605 232.148Z" fill="#F8AC5E"/>
<path fill-rule="evenodd" clip-rule="evenodd" d="M98.1363 177.074C95.6051 177.074 92.9505 177.753 90.5304 178.599C90.3143 178.383 90.0982 178.278 89.7772 178.278C89.4871 178.253 89.2031 178.241 88.9253 178.241C82.2701 178.241 79.2574 184.378 78.8437 190.613C78.7326 191.372 78.6277 192.237 78.6277 193.101C78.5165 195.811 78.8437 198.404 79.387 201.114C79.2759 201.059 79.1401 201.034 79.0042 201.034C78.8684 201.034 78.7326 201.059 78.6277 201.114C77.8683 201.114 77.2201 201.546 76.8929 202.195C76.6768 202.627 76.5718 202.954 76.5718 203.386C76.3558 205.226 77.7633 207.393 79.2759 208.578C79.8192 208.905 80.3563 209.233 80.8996 209.554C81.4428 213.344 82.3071 216.913 83.7147 220.487C84.3259 222.024 85.4248 223.753 87.0114 223.753C87.0979 223.753 87.1905 223.747 87.2831 223.734C87.8264 232.828 87.2831 241.595 87.3942 250.682C90.0056 253.139 93.4876 254.491 97.0312 254.491C98.3339 254.491 99.6427 254.306 100.921 253.93C102.767 253.609 104.495 252.522 105.687 251.009L105.143 221.03C105.687 220.592 106.119 220.16 106.335 219.512C107.959 215.832 108.718 211.826 108.718 207.714C109.15 207.393 109.582 207.066 110.014 206.634C111.638 205.442 112.83 203.713 113.262 201.651C113.262 201.003 112.83 200.25 112.286 199.923C112.07 199.596 111.854 199.275 111.638 199.058C111.156 198.657 110.613 198.435 110.058 198.435C109.866 198.435 109.669 198.46 109.471 198.515C109.255 198.626 109.039 198.626 108.823 198.842V197.435C109.039 194.076 109.039 190.613 108.718 187.261C108.286 183.797 106.551 180.655 103.736 178.599C102.063 177.5 100.137 177.074 98.1363 177.074Z" fill="#642A1F"/>
<path fill-rule="evenodd" clip-rule="evenodd" d="M99.1359 177.988C99.8335 177.988 100.593 178.13 101.463 178.494C104.167 179.574 106.878 181.957 106.445 185.205C106.334 186.39 105.902 187.476 105.686 188.668C105.254 191.477 106.445 194.292 106.766 197.107C107.199 200.466 106.55 203.818 104.822 206.738C104.167 207.609 103.735 208.578 103.303 209.553C102.544 211.825 103.303 214.208 103.087 216.591C103.087 217.351 102.871 218.215 102.544 219.079L101.895 215.184C101.791 214.208 101.791 212.152 101.142 211.177C101.031 210.961 100.815 210.856 100.599 210.745H99.4075C98.1111 210.856 96.8084 211.072 95.512 211.393V212.912V213.992C96.5923 213.776 97.5678 213.56 98.4321 213.128C98.8642 213.017 99.1914 212.696 99.6236 212.585C99.9878 212.48 100.074 212.356 100.105 212.356C100.142 212.356 100.105 212.511 100.272 213.017C100.383 213.344 100.488 213.56 100.599 213.887C100.704 214.752 100.704 215.727 100.815 216.375C101.142 217.783 101.358 219.295 101.574 220.814C99.9631 223.314 97.2653 224.605 94.5365 224.605C92.314 224.605 90.0668 223.753 88.3691 221.999V218.104V216.696C88.5852 215.616 88.6901 214.535 88.9062 213.449C88.9864 213.4 89.0667 213.381 89.1531 213.381C89.4433 213.381 89.7952 213.609 90.2088 213.776C90.7459 213.887 91.1842 213.992 91.7214 214.103C92.0486 214.103 92.3696 214.208 92.6968 214.208V213.776V211.504C91.4003 211.504 89.8816 211.504 88.474 211.393C88.258 211.393 87.9369 211.609 87.8258 211.936C87.8258 212.041 87.8258 212.264 87.7208 212.369V212.48C87.3936 213.017 87.3936 213.665 87.5048 214.208C87.1776 216.048 86.9615 217.999 86.7454 219.839C86.5293 219.406 86.4182 218.863 86.2021 218.431C85.4428 215.616 86.0972 212.369 84.7946 209.664C84.2574 208.8 83.7142 207.93 83.1709 207.065C80.578 202.954 79.9236 197.972 81.2262 193.212C81.7633 191.804 82.0905 190.292 82.1955 188.884C82.1955 186.501 81.0101 184.013 82.0905 181.846C82.9857 180.155 85.0724 179.562 87.0047 179.562C87.1714 179.562 87.3381 179.568 87.5048 179.574C88.8753 179.574 90.2891 179.815 91.6967 179.815C92.3943 179.815 93.0919 179.753 93.7772 179.574C95.8885 178.951 97.3208 177.988 99.1359 177.988ZM94.2772 176.092C89.2581 176.092 84.3439 177.827 81.2262 181.741C78.8432 185.093 77.6517 189.205 77.8677 193.323C77.9789 198.083 79.7075 202.627 80.2508 207.393C80.899 212.585 81.3311 217.783 84.5785 222.11C85.1218 222.975 85.8811 223.734 86.6343 224.382L86.7454 224.493C88.9124 226.555 91.8695 227.636 94.8637 227.636C95.0119 227.636 95.1539 227.636 95.2959 227.63C99.9508 227.414 103.951 223.839 106.118 219.727C108.174 215.511 108.606 210.745 108.933 206.09C109.254 199.922 109.149 193.86 108.717 187.693C108.606 185.093 108.285 182.278 106.55 180.334C105.143 178.815 103.414 177.839 101.574 177.302C99.247 176.512 96.7467 176.092 94.2772 176.092Z" fill="#0F1C4D"/>
<path fill-rule="evenodd" clip-rule="evenodd" d="M119.737 235.046C119.737 235.046 130.221 246.797 132.92 261.282C123.029 267.55 116.14 275.23 116.444 283.276C117.169 302.414 158.033 316.389 182.598 315.458C182.729 315.453 182.86 315.448 182.992 315.443C207.486 314.514 226.815 298.258 226.09 279.119C225.366 259.996 204.863 245.257 180.368 246.186C180.237 246.191 180.106 246.196 179.975 246.201C170.899 246.545 159.806 249.09 149.425 253.103C148.505 250.423 143.367 239.02 119.737 235.046Z" fill="#D4D4D4"/>
<path d="M141.296 286.219C140.421 286.219 139.632 286.102 138.929 285.867C138.241 285.617 137.601 285.266 137.007 284.812L137.804 283.781C138.163 284.031 138.569 284.219 139.022 284.344C139.476 284.453 139.929 284.508 140.382 284.508C141.351 284.508 142.179 284.32 142.866 283.945C143.569 283.555 144.108 283.023 144.483 282.352C144.858 281.664 145.046 280.891 145.046 280.031C145.046 279.422 144.937 278.852 144.718 278.32C144.515 277.789 144.171 277.367 143.687 277.055C143.218 276.727 142.577 276.562 141.765 276.562C141.171 276.562 140.577 276.703 139.983 276.984C139.405 277.25 138.796 277.625 138.155 278.109V277.172C138.608 276.719 139.062 276.32 139.515 275.977C139.968 275.617 140.483 275.336 141.062 275.133C141.655 274.914 142.366 274.805 143.194 274.805C144.21 274.805 145.062 275.039 145.749 275.508C146.437 275.961 146.952 276.562 147.296 277.312C147.655 278.062 147.835 278.867 147.835 279.727C147.835 280.555 147.702 281.359 147.437 282.141C147.171 282.922 146.772 283.617 146.241 284.227C145.71 284.836 145.03 285.32 144.202 285.68C143.39 286.039 142.421 286.219 141.296 286.219ZM136.796 291.281C136.249 291.281 135.851 291.141 135.601 290.859C135.351 290.594 135.226 290.141 135.226 289.5C135.226 289.078 135.249 288.562 135.296 287.953C135.358 287.344 135.452 286.57 135.577 285.633C135.718 284.695 135.897 283.531 136.116 282.141C136.335 280.734 136.608 279.031 136.937 277.031L136.233 275.672C136.702 275.391 137.163 275.172 137.616 275.016C138.085 274.844 138.499 274.758 138.858 274.758C139.499 274.758 139.819 275.148 139.819 275.93C139.819 276.039 139.788 276.32 139.726 276.773C139.663 277.227 139.577 277.797 139.468 278.484C139.358 279.156 139.233 279.898 139.093 280.711C138.952 281.508 138.812 282.32 138.671 283.148C138.546 283.977 138.429 284.766 138.319 285.516C138.21 286.266 138.124 286.93 138.062 287.508C137.999 288.07 137.968 288.492 137.968 288.773C137.968 289.211 138.007 289.594 138.085 289.922C138.179 290.234 138.312 290.5 138.483 290.719C137.921 291.094 137.358 291.281 136.796 291.281ZM154.773 291.258C153.226 291.258 152.008 290.789 151.117 289.852C150.242 288.898 149.805 287.586 149.805 285.914C149.805 284.695 150 283.578 150.39 282.562C150.797 281.531 151.359 280.648 152.078 279.914C152.797 279.164 153.64 278.578 154.609 278.156C155.578 277.734 156.633 277.523 157.773 277.523C158.93 277.523 159.828 277.805 160.469 278.367C161.125 278.914 161.453 279.68 161.453 280.664C161.453 281.711 161.078 282.609 160.328 283.359C159.594 284.094 158.516 284.648 157.094 285.023C155.672 285.398 153.937 285.594 151.89 285.609L152.172 284.391C154.344 284.406 156.031 284.078 157.234 283.406C158.453 282.734 159.062 281.805 159.062 280.617C159.062 280.102 158.914 279.688 158.617 279.375C158.32 279.062 157.914 278.906 157.398 278.906C156.742 278.906 156.117 279.094 155.523 279.469C154.945 279.828 154.43 280.336 153.976 280.992C153.523 281.648 153.164 282.406 152.898 283.266C152.648 284.125 152.523 285.047 152.523 286.031C152.523 287.188 152.742 288.109 153.18 288.797C153.633 289.469 154.242 289.805 155.008 289.805C155.961 289.805 156.734 289.508 157.328 288.914C157.922 288.305 158.25 287.5 158.312 286.5C158.875 286.5 159.312 286.602 159.625 286.805C159.937 287.008 160.094 287.344 160.094 287.812C160.094 288.406 159.859 288.969 159.391 289.5C158.922 290.016 158.289 290.438 157.492 290.766C156.695 291.094 155.789 291.258 154.773 291.258ZM154.14 295.57C153.719 295.57 153.383 295.461 153.133 295.242C152.883 295.039 152.758 294.766 152.758 294.422C152.758 293.906 152.93 293.484 153.273 293.156C153.633 292.828 154.086 292.664 154.633 292.664C155.055 292.664 155.391 292.773 155.641 292.992C155.891 293.227 156.016 293.516 156.016 293.859C156.016 294.375 155.836 294.789 155.476 295.102C155.133 295.414 154.687 295.57 154.14 295.57ZM165.946 291.258C165.509 291.258 165.173 291.117 164.938 290.836C164.704 290.555 164.587 290.117 164.587 289.523C164.587 289.258 164.618 288.836 164.68 288.258C164.743 287.664 164.829 286.969 164.938 286.172C165.063 285.359 165.196 284.492 165.337 283.57C165.493 282.633 165.649 281.695 165.805 280.758C165.962 279.805 166.11 278.898 166.251 278.039C166.407 277.164 166.548 276.391 166.673 275.719L165.712 274.617C166.055 274.336 166.462 274.109 166.93 273.938C167.415 273.766 167.852 273.68 168.243 273.68C168.649 273.68 168.938 273.773 169.11 273.961C169.282 274.133 169.368 274.445 169.368 274.898C169.368 275.102 169.313 275.484 169.204 276.047C169.094 276.609 168.954 277.297 168.782 278.109C168.626 278.906 168.454 279.781 168.266 280.734C168.079 281.688 167.899 282.672 167.727 283.688C167.571 284.703 167.438 285.688 167.329 286.641C167.219 287.594 167.165 288.484 167.165 289.312C167.165 289.578 167.196 289.836 167.259 290.086C167.337 290.336 167.446 290.523 167.587 290.648C167.384 290.836 167.141 290.984 166.86 291.094C166.594 291.203 166.29 291.258 165.946 291.258ZM177.307 291.258C175.761 291.258 174.542 290.789 173.651 289.852C172.776 288.898 172.339 287.586 172.339 285.914C172.339 284.695 172.534 283.578 172.925 282.562C173.331 281.531 173.893 280.648 174.612 279.914C175.331 279.164 176.175 278.578 177.143 278.156C178.112 277.734 179.167 277.523 180.307 277.523C181.464 277.523 182.362 277.805 183.003 278.367C183.659 278.914 183.987 279.68 183.987 280.664C183.987 281.711 183.612 282.609 182.862 283.359C182.128 284.094 181.05 284.648 179.628 285.023C178.206 285.398 176.471 285.594 174.425 285.609L174.706 284.391C176.878 284.406 178.565 284.078 179.768 283.406C180.987 282.734 181.596 281.805 181.596 280.617C181.596 280.102 181.448 279.688 181.151 279.375C180.854 279.062 180.448 278.906 179.932 278.906C179.276 278.906 178.651 279.094 178.057 279.469C177.479 279.828 176.964 280.336 176.511 280.992C176.057 281.648 175.698 282.406 175.432 283.266C175.182 284.125 175.057 285.047 175.057 286.031C175.057 287.188 175.276 288.109 175.714 288.797C176.167 289.469 176.776 289.805 177.542 289.805C178.495 289.805 179.268 289.508 179.862 288.914C180.456 288.305 180.784 287.5 180.846 286.5C181.409 286.5 181.846 286.602 182.159 286.805C182.471 287.008 182.628 287.344 182.628 287.812C182.628 288.406 182.393 288.969 181.925 289.5C181.456 290.016 180.823 290.438 180.026 290.766C179.229 291.094 178.323 291.258 177.307 291.258ZM176.675 295.57C176.253 295.57 175.917 295.461 175.667 295.242C175.417 295.039 175.292 294.766 175.292 294.422C175.292 293.906 175.464 293.484 175.807 293.156C176.167 292.828 176.62 292.664 177.167 292.664C177.589 292.664 177.925 292.773 178.175 292.992C178.425 293.227 178.55 293.516 178.55 293.859C178.55 294.375 178.37 294.789 178.011 295.102C177.667 295.414 177.221 295.57 176.675 295.57ZM199.095 291.258C198.033 291.258 197.103 291.023 196.306 290.555C195.509 290.07 194.892 289.398 194.455 288.539C194.033 287.68 193.822 286.664 193.822 285.492C193.822 284.32 194.009 283.25 194.384 282.281C194.759 281.297 195.291 280.453 195.978 279.75C196.666 279.047 197.478 278.5 198.416 278.109C199.353 277.719 200.384 277.523 201.509 277.523C201.822 277.523 202.111 277.539 202.376 277.57C202.658 277.586 202.939 277.633 203.22 277.711C203.314 277.852 203.376 278.008 203.408 278.18C203.455 278.352 203.486 278.539 203.501 278.742C202.001 278.742 200.736 279.047 199.705 279.656C198.673 280.25 197.884 281.062 197.337 282.094C196.806 283.125 196.541 284.305 196.541 285.633C196.541 286.93 196.783 287.953 197.267 288.703C197.751 289.438 198.439 289.805 199.33 289.805C200.22 289.805 201.009 289.562 201.697 289.078C202.384 288.578 202.947 287.883 203.384 286.992C203.837 286.102 204.126 285.062 204.251 283.875C203.642 283.5 203.197 283.086 202.916 282.633C202.65 282.164 202.517 281.625 202.517 281.016C202.517 280.641 202.595 280.305 202.751 280.008C202.908 279.711 203.119 279.484 203.384 279.328C203.65 279.156 203.947 279.07 204.275 279.07C204.962 279.07 205.494 279.375 205.869 279.984C206.244 280.578 206.431 281.406 206.431 282.469C206.431 283.703 206.244 284.852 205.869 285.914C205.509 286.977 204.986 287.906 204.298 288.703C203.626 289.5 202.845 290.125 201.955 290.578C201.08 291.031 200.126 291.258 199.095 291.258ZM212.151 285.234C211.823 285.234 211.596 285.141 211.471 284.953C211.362 284.766 211.307 284.516 211.307 284.203C211.307 283.938 211.346 283.555 211.425 283.055C211.503 282.555 211.596 282 211.706 281.391C211.815 280.781 211.925 280.156 212.034 279.516C212.143 278.875 212.237 278.273 212.315 277.711C212.393 277.133 212.432 276.641 212.432 276.234C212.432 275.938 212.409 275.625 212.362 275.297C212.315 274.953 212.206 274.68 212.034 274.477C212.3 274.211 212.62 274.016 212.995 273.891C213.37 273.75 213.776 273.68 214.214 273.68C214.823 273.68 215.253 273.859 215.503 274.219C215.768 274.578 215.901 275.031 215.901 275.578C215.901 275.875 215.839 276.32 215.714 276.914C215.604 277.492 215.448 278.148 215.245 278.883C215.042 279.602 214.823 280.336 214.589 281.086C214.37 281.836 214.151 282.539 213.932 283.195C213.714 283.836 213.526 284.359 213.37 284.766C213.198 284.922 212.995 285.039 212.761 285.117C212.526 285.195 212.323 285.234 212.151 285.234ZM211.214 291.258C210.776 291.258 210.401 291.109 210.089 290.812C209.792 290.516 209.643 290.164 209.643 289.758C209.643 289.414 209.721 289.109 209.878 288.844C210.034 288.562 210.253 288.336 210.534 288.164C210.815 287.992 211.128 287.906 211.471 287.906C211.925 287.906 212.3 288.055 212.596 288.352C212.893 288.633 213.042 288.992 213.042 289.43C213.042 289.742 212.956 290.039 212.784 290.32C212.628 290.602 212.409 290.828 212.128 291C211.846 291.172 211.542 291.258 211.214 291.258Z" fill="#E7654B"/>
<path fill-rule="evenodd" clip-rule="evenodd" d="M338.961 120.968C333.455 120.968 328.01 123.095 323.544 126.229C322.3 127.113 321.11 128.085 319.975 129.105C319.934 129.166 319.9 129.2 319.88 129.234C318.16 130.281 316.603 131.579 315.285 133.102C311.22 137.921 310.669 144.46 311.532 150.449C312.063 154.059 313.123 157.553 314.116 161.053C315.101 164.391 315.856 167.797 316.4 171.236C317.188 176.756 318.017 183.18 323.36 186.225C325.318 187.34 327.493 187.843 329.675 187.843C333.013 187.843 336.378 186.667 339.042 184.682C344.229 180.855 347.064 174.866 349.137 168.932C350.347 165.486 351.333 161.971 352.617 158.545C353.882 155.119 355.438 151.734 356.594 148.213C358.64 141.986 359.306 134.821 355.343 129.179C352.141 124.605 346.846 121.743 341.354 121.104C340.552 121.009 339.756 120.968 338.961 120.968Z" fill="#BA422D"/>
<path fill-rule="evenodd" clip-rule="evenodd" d="M338.961 120.968C333.455 120.968 328.01 123.095 323.544 126.229C322.3 127.113 321.11 128.085 319.975 129.105C319.934 129.166 319.9 129.2 319.88 129.234C318.16 130.281 316.603 131.579 315.285 133.102C311.22 137.921 310.669 144.46 311.532 150.449C312.063 154.059 313.123 157.553 314.116 161.053C315.101 164.391 315.856 167.797 316.4 171.236C317.188 176.756 318.017 183.18 323.36 186.225C325.318 187.34 327.493 187.843 329.675 187.843C333.013 187.843 336.378 186.667 339.042 184.682C344.229 180.855 347.064 174.866 349.137 168.932C350.347 165.486 351.333 161.971 352.617 158.545C353.882 155.119 355.438 151.734 356.594 148.213C358.64 141.986 359.306 134.821 355.343 129.179C352.141 124.605 346.846 121.743 341.354 121.104C340.552 121.009 339.756 120.968 338.961 120.968Z" fill="#BA422D"/>
<path fill-rule="evenodd" clip-rule="evenodd" d="M322.156 176.94C307.63 177.633 289.623 213.722 273.791 244.094L281.432 254.569C299.017 240.552 312.388 225.903 318.03 210.004C321.055 201.486 322.156 176.94 322.156 176.94Z" fill="#E7654B"/>
<path fill-rule="evenodd" clip-rule="evenodd" d="M310.322 268.545L299.052 297.782C294.824 308.753 292.275 320.309 291.473 332.035C291.16 336.814 291.139 341.599 291.418 346.357C293.192 375.832 299.201 409.977 299.201 409.977C292.682 452.605 298.155 498.896 301.689 521.369C302.478 526.264 303.158 530.036 303.613 532.382C303.946 534.19 304.164 535.162 304.164 535.162L307.991 536.079L313.653 537.432L313.694 535.842L313.803 531.96L314 524.829L316.95 416.244C320.893 402.819 327.391 343.285 327.391 343.285L334.406 342.823C335.304 354.936 353.623 418.915 353.623 418.915C356.553 431.484 361.631 499.372 363.5 525.713C363.684 528.351 363.847 530.567 363.956 532.266C364.031 533.422 364.105 534.36 364.16 535.019C364.194 535.658 364.248 536.046 364.248 536.134C364.248 536.154 364.248 536.168 364.248 536.168H372.344L372.419 535.808C372.473 535.549 372.507 535.332 372.568 535.087C372.806 534.006 373.044 532.946 373.241 531.885C373.758 529.357 374.234 526.869 374.669 524.408C387.054 455.895 372.004 411.771 371.977 411.771C373.683 400.473 373.941 369.571 373.941 348.281C373.941 342.863 373.554 337.439 372.765 332.069C371.576 323.592 369.326 315.313 366.097 307.38C359.061 290.121 350.068 268.545 350.068 268.545H310.322Z" fill="white"/>
<path fill-rule="evenodd" clip-rule="evenodd" d="M364.228 534.761C364.214 534.849 364.194 534.944 364.173 535.019V535.033C364.085 535.454 363.99 535.842 363.935 536.154C363.752 536.956 363.643 537.432 363.643 537.432C363.5 538.275 363.351 539.138 363.188 540.002C362.032 546.718 361.141 553.488 365.587 553.488C365.655 553.488 365.723 553.481 365.784 553.481L366.484 553.461C366.539 553.461 366.6 553.461 366.661 553.461C368.612 553.461 370.481 554.644 371.759 556.799C373.527 559.776 377.123 560.823 380.691 560.823C383.118 560.823 385.525 560.34 387.346 559.654C387.571 559.579 387.809 559.457 388.06 559.361C389.97 558.484 390.5 554.78 388.944 553.094L386.741 550.586L373.207 535.767L372.568 535.087C372.568 534.999 364.228 534.761 364.228 534.761Z" fill="#E7654B"/>
<path fill-rule="evenodd" clip-rule="evenodd" d="M304.163 534.006C304.204 534.393 304.204 534.781 304.163 535.161L303.103 536.283L288.63 551.32L286.911 553.094C285.17 554.779 285.334 558.484 287.169 559.361C287.407 559.456 287.624 559.579 287.862 559.653C289.616 560.34 291.975 560.823 294.395 560.823C297.964 560.823 301.662 559.776 303.728 556.798C305.203 554.644 307.161 553.461 309.132 553.461C309.193 553.461 309.254 553.461 309.316 553.461L310.009 553.481C310.07 553.481 310.131 553.488 310.193 553.488C314.924 553.488 314.339 545.881 313.782 538.771C313.748 538.316 313.707 537.874 313.673 537.432C313.673 537.432 313.598 536.827 313.489 535.862C313.455 535.529 313.394 535.161 313.36 534.76L304.163 534.006Z" fill="#E7654B"/>
<path fill-rule="evenodd" clip-rule="evenodd" d="M324.754 176.77C324.645 176.77 324.536 176.77 324.441 176.79C324.414 176.79 324.38 176.79 324.346 176.79C318.174 176.79 312.484 180.318 309.609 185.749C309.167 186.551 308.8 187.381 308.528 188.237C307.406 191.52 306.291 194.98 305.503 197.822L302.335 209.779C297.278 224.108 301.288 228.391 305.374 234.747C305.666 235.555 305.904 236.344 306.142 237.146C307.576 241.673 308.582 246.418 308.779 251.088C309.092 258.47 307.923 265.56 305.17 272.208C288.597 312.083 291.493 332.034 291.493 332.034C306.21 336.161 319.941 338.132 333.149 338.132C346.737 338.132 359.782 336.045 372.786 332.068L373.241 331.926C373.241 331.926 371.426 301.316 357.872 267.137C356.54 263.745 356.023 257.77 356.444 254.052C356.703 251.469 357.763 243.577 359.028 234.549C361.21 218.643 363.976 199.263 363.976 199.263C362.746 196.354 363.167 178.551 363.167 178.551C363.167 178.551 355.935 178.476 352.543 178.292C343.678 177.742 327.303 176.77 324.754 176.77Z" fill="#E7654B"/>
<path fill-rule="evenodd" clip-rule="evenodd" d="M330.491 159.313L330.158 162.468L329.077 172.854L328.397 179.591C328.397 179.632 328.397 179.666 328.397 179.686V180.692C328.363 183.588 329.661 186.354 332.047 187.911C333.257 188.734 334.678 189.155 336.112 189.155C336.779 189.155 337.452 189.067 338.111 188.876C341.938 187.891 344.609 184.247 344.847 180.345L345.031 177.191L346.703 160.231L330.491 159.313Z" fill="#9E6355"/>
<path fill-rule="evenodd" clip-rule="evenodd" d="M344.372 160.395L330.158 162.468L329.077 172.855L328.397 179.591C328.397 179.632 328.397 179.666 328.397 179.686C328.506 179.686 328.615 179.686 328.724 179.686C344.882 179.686 344.372 160.395 344.372 160.395Z" fill="#9E6355"/>
<path fill-rule="evenodd" clip-rule="evenodd" d="M339.484 122.178C335.405 122.178 331.286 123.279 328.05 125.461C326.017 126.875 324.243 128.649 322.816 130.682C320.559 133.87 318.255 137.683 317.996 141.469C317.813 144.127 317.446 146.765 317.058 149.402C316.949 150.211 316.82 151 316.711 151.802C315.998 156.954 316.623 162.025 319.369 166.512C321.905 170.699 326.398 173.112 331.082 173.112C332.584 173.112 334.113 172.861 335.595 172.338C338.729 171.257 342.468 169.149 346.737 165.343C349.796 162.427 352.066 158.783 353.351 154.752C353.351 154.752 353.358 154.752 353.364 154.752C353.759 154.752 360.121 154.65 359.965 147.941C359.965 147.941 359.842 143.026 356.559 143.026C355.941 143.026 355.206 143.203 354.336 143.617C356.736 135.977 355.988 127.405 347.58 123.775C345.112 122.708 342.311 122.178 339.484 122.178Z" fill="#924430"/>
<path fill-rule="evenodd" clip-rule="evenodd" d="M339.212 120.472C337.458 120.472 335.718 120.71 334.08 121.362C332.482 122.001 331.034 123.007 329.369 123.395C327.887 123.741 326.33 123.578 324.849 123.85C321.844 124.401 319.39 126.692 317.901 129.349C316.399 132 315.726 135.025 315.067 138.01L313.177 146.622C312.81 148.213 312.463 149.865 312.572 151.51C312.701 153.162 313.361 154.847 314.7 155.813C315.332 156.282 316.148 156.533 316.943 156.533C317.799 156.533 318.636 156.248 319.22 155.636C317.521 155.486 317.208 147.703 317.772 145.208C318.364 142.72 319.512 140.28 321.457 138.615C323.346 137.004 325.78 136.235 328.159 135.522C327.976 136.29 327.799 137.078 327.629 137.867C330.797 137.629 333.896 136.616 336.608 134.951C336.479 136.14 336.017 137.275 335.29 138.214C335.806 138.261 336.33 138.288 336.846 138.288C340.374 138.288 343.814 137.106 346.608 134.917C348.185 136.582 348.477 139.111 348.11 141.381C347.723 143.631 346.757 145.759 346.078 147.941C345.398 150.137 345.017 152.536 345.799 154.698C346.282 156.051 347.247 157.335 347.138 158.783C347.016 160.469 345.629 161.475 344.222 161.475C343.304 161.475 342.38 161.054 341.788 160.122C341.129 162.848 342.781 165.798 345.269 167.083C346.39 167.647 347.634 167.912 348.892 167.912C350.428 167.912 351.978 167.518 353.351 166.825C355.839 165.581 357.804 163.433 359.285 161.074C362.066 156.655 363.35 151.347 363.201 146.126C363.058 140.905 361.522 135.76 359.007 131.178C357.525 128.466 355.655 125.903 353.127 124.142C350.584 122.402 347.56 121.6 344.541 121.049C342.788 120.716 340.993 120.472 339.212 120.472Z" fill="#E7654B"/>
<path fill-rule="evenodd" clip-rule="evenodd" d="M291.268 205.456C288.447 207.271 285.3 208.515 281.983 209.161L274.635 238.153C274.635 238.153 272.786 246.616 274.784 252.006C275.641 254.351 277.789 255.595 280.032 255.595C281.711 255.595 283.444 254.902 284.75 253.454C290.888 246.616 292.553 229.472 291.268 205.456Z" fill="#E7654B"/>
<path fill-rule="evenodd" clip-rule="evenodd" d="M266.083 180.379C266.083 180.379 264.05 180.95 265.865 184.961C265.865 184.961 264.995 184.091 264.397 184.091C263.887 184.091 263.574 184.73 264.193 187.123C264.193 187.123 264.07 187.095 263.887 187.095C262.82 187.095 259.931 187.938 270.752 199.596L283.247 204.178L281.982 209.161C285.279 208.515 288.447 207.271 291.268 205.456C291.125 202.744 290.955 199.943 290.738 197.068C290.649 195.348 289.691 193.771 288.209 192.873C286.523 191.895 283.872 190.902 280.099 190.902C278.427 190.902 276.537 191.092 274.416 191.575L266.083 180.379Z" fill="#924430"/>
<path fill-rule="evenodd" clip-rule="evenodd" d="M390.976 128.521C388.481 129.112 385.959 129.404 383.403 129.404C383.254 129.404 383.104 129.404 382.948 129.404C385.13 140.226 390.33 166.166 391.397 171.883L357.069 179.428C351.278 180.692 347.668 186.518 349.136 192.269C350.353 197.047 354.642 200.195 359.326 200.195C360.291 200.195 361.277 200.059 362.249 199.78L402.423 188.163C408.541 186.647 411.892 180.053 409.513 174.228L390.976 128.521Z" fill="#E7654B"/>
<path fill-rule="evenodd" clip-rule="evenodd" d="M381.916 95.0962C380.991 95.0962 379.693 96.4625 382.493 106.36L380.644 106.707L377.348 96.3538C377.348 96.3538 377.055 96.1974 376.709 96.1974C375.669 96.1974 374.112 97.6181 378.265 108.977L378.204 115.02L375.206 115.72C375.206 115.72 372.297 112.009 369.809 112.009C369.218 112.009 368.647 112.213 368.15 112.729C368.15 112.729 371.502 114.51 374.03 118.922C374.982 120.608 376.43 121.967 378.17 122.803L381.997 124.639C381.997 124.639 382.364 126.454 382.949 129.404C383.16 129.404 383.364 129.411 383.567 129.411C386.069 129.411 388.55 129.098 390.977 128.52L389.033 123.775C389.033 123.775 392.479 119.568 390.793 111.118L393.594 101.595C393.594 101.595 393.315 100.595 392.765 100.595C392.194 100.595 391.337 101.656 390.209 105.938L388.577 105.864L389.91 96.7752C389.91 96.7752 389.543 96.1906 389.053 96.1906C388.244 96.1906 387.095 97.7609 386.688 106.047L384.73 106.061L382.568 95.2933C382.568 95.2933 382.269 95.0962 381.916 95.0962Z" fill="#924430"/>
<path fill-rule="evenodd" clip-rule="evenodd" d="M331.626 130.417C335.242 130.417 338.872 131.416 341.883 133.415C348.953 138.139 352.284 147.479 350.673 155.833H350.659C349.028 164.188 344.426 169.938 336.805 173.752C334.358 174.982 331.524 175.866 328.811 175.866C326.854 175.866 324.964 175.411 323.326 174.296C319.553 171.753 316.99 168.123 316.215 163.637C314.788 155.174 313.455 146.106 317.099 138.343L318.635 135.903C321.871 132.246 326.731 130.417 331.626 130.417ZM340.218 115.85C336.778 115.85 333.339 116.366 330.049 117.365C324.828 118.977 319.736 121.967 317.153 126.767C316.236 128.466 307.426 144.019 312.776 161.55C313.632 164.426 314.917 167.376 314.366 170.326C313.326 175.764 306.474 179.224 306.841 184.757C307.222 190.399 315.067 193.608 314.842 199.263C314.699 202.472 311.953 204.851 310.322 207.618C308.636 210.48 308.119 213.885 308.853 217.128C309.404 219.527 310.981 221.981 313.415 222.369C313.646 222.403 313.863 222.416 314.081 222.416C317.16 222.416 319.437 219.092 321.987 217.087C325.066 214.68 329.144 214.075 333.107 214.075C333.597 214.075 334.086 214.089 334.576 214.103C337.07 214.184 339.586 214.422 342.08 214.422C343.997 214.422 345.901 214.286 347.763 213.831C352.046 212.784 356.185 209.521 356.573 205.13C356.845 201.976 355.179 199.026 353.915 196.137C352.637 193.22 351.774 189.686 353.494 187.048C354.907 184.866 357.62 183.955 360.162 183.459C362.711 182.942 365.423 182.636 367.51 181.093C369.577 179.577 370.712 176.274 368.972 174.357C366.81 171.937 362.507 173.514 359.836 171.699C357.525 170.088 357.45 166.553 358.755 164.038C360.053 161.55 362.303 159.715 364.139 157.574C369.21 151.585 370.712 142.918 368.421 135.393C366.137 127.881 360.237 121.668 353.072 118.487C349.034 116.699 344.629 115.85 340.218 115.85Z" fill="#0F1C4D"/>
<path fill-rule="evenodd" clip-rule="evenodd" d="M342.699 234.25C322.898 234.25 311.981 235.753 306.142 237.146C307.576 241.674 308.582 246.418 308.779 251.088C309.092 258.47 307.923 265.56 305.169 272.208C298.834 287.449 293.471 303.566 291.744 320.071C289.766 339.09 292.036 359.164 294.252 378.088C296.163 394.41 298.671 409.922 297.257 426.426C294.055 464.031 298.596 501.771 301.709 521.369C305.469 522.871 309.608 523.986 314 524.829C322.089 526.379 330.98 526.943 339.647 526.943C348.144 526.943 356.417 526.399 363.514 525.713C367.708 525.305 371.501 524.829 374.669 524.408C377.143 524.061 378.829 491.949 379.033 488.305C379.672 478.068 379.726 467.79 379.216 457.553C377.965 433.516 373.588 409.833 373.078 385.634C372.677 366.363 375.144 346.908 373.003 327.745C370.658 306.958 365.566 286.585 357.872 267.137C356.539 263.745 356.023 257.77 356.444 254.052C356.702 251.469 357.763 243.577 359.007 234.55C352.998 234.339 347.58 234.25 342.699 234.25Z" fill="#924430"/>
<path fill-rule="evenodd" clip-rule="evenodd" d="M217.561 144.206C187.828 144.206 163.724 158.821 163.724 176.848C163.724 194.889 187.828 209.491 217.561 209.491C247.294 209.491 271.378 194.876 271.378 176.848C271.378 175.455 271.235 174.082 270.943 172.729C271.398 172.437 271.894 172.138 272.37 171.845C279.365 170.649 286.462 170.037 293.565 170.037C294.157 170.037 294.748 170.044 295.34 170.051C284.178 161.995 273.818 160.296 267.102 160.296C265.974 160.296 264.947 160.344 264.036 160.418C254.71 150.711 237.396 144.206 217.561 144.206Z" fill="#D4D4D4"/>
<path d="M209.45 183.851H194.544C192.544 183.851 190.95 183.499 189.763 182.796C188.278 181.921 187.536 180.554 187.536 178.694C187.536 177.726 187.755 176.733 188.192 175.718C188.349 175.358 188.724 174.663 189.317 173.632L189.786 173.937C189.552 174.421 189.325 174.897 189.106 175.366C188.81 176.116 188.661 176.78 188.661 177.358C188.661 178.593 189.302 179.546 190.583 180.218C191.739 180.827 193.208 181.132 194.989 181.132H208.208V180.71C208.208 179.538 208.067 178.585 207.786 177.851C207.505 177.116 207.028 176.491 206.356 175.976L207.552 173.421C208.005 173.999 208.278 174.358 208.372 174.499C209.091 175.671 209.45 177.366 209.45 179.585V183.851ZM200.497 187.647L199.278 189.897L196.747 188.585L197.896 186.312L200.497 187.647ZM226.39 183.851H208.343V181.132H221.093C220.031 180.304 219.132 179.663 218.398 179.21C217.492 178.632 216.663 178.21 215.913 177.944C215.07 177.663 214.218 177.522 213.359 177.522C212.827 177.522 212.288 177.554 211.742 177.616C212.038 176.851 212.437 176.233 212.937 175.765C213.64 175.093 214.531 174.757 215.609 174.757C216.671 174.757 217.929 175.272 219.382 176.304C220.101 176.835 221.273 177.827 222.898 179.28C224.163 180.421 225.015 181.038 225.452 181.132H226.39V183.851ZM242.026 183.851C242.026 184.991 241.542 186.179 240.573 187.413C239.714 188.491 238.651 189.421 237.386 190.202C236.167 190.952 235.167 191.327 234.386 191.327C233.667 191.327 232.894 191.226 232.066 191.022C231.425 190.866 230.667 190.616 229.792 190.272C229.042 189.991 228.292 189.71 227.542 189.429L227.823 188.819C228.511 188.944 229.222 189.077 229.956 189.218C230.706 189.358 231.386 189.429 231.995 189.429C233.323 189.429 234.714 189.007 236.167 188.163C237.48 187.382 238.597 186.397 239.519 185.21C240.441 184.007 240.901 182.929 240.901 181.976C240.901 181.147 240.667 180.28 240.198 179.374C239.808 178.64 239.261 177.89 238.558 177.124L239.448 174.663C240.308 175.46 240.941 176.257 241.347 177.054C241.8 177.944 242.026 178.944 242.026 180.054V183.851ZM254.64 183.851H253.023C252.32 183.851 251.53 183.694 250.655 183.382C249.64 183.007 248.749 182.507 247.984 181.882C247.374 182.616 246.757 183.132 246.132 183.429C245.507 183.71 244.585 183.851 243.366 183.851H240.929V181.132H243.32C244.273 181.132 245.116 180.89 245.851 180.405C246.429 180.03 246.952 179.507 247.421 178.835C248.062 177.913 248.843 177.116 249.765 176.444C250.593 175.835 251.359 175.444 252.062 175.272C252.78 176.366 253.351 177.351 253.773 178.226C254.351 179.413 254.64 180.382 254.64 181.132V183.851ZM252.835 180.757C252.71 180.163 252.507 179.569 252.226 178.976C251.976 178.491 251.655 177.991 251.265 177.476C250.765 177.601 250.343 177.835 249.999 178.179C249.765 178.397 249.491 178.765 249.179 179.28C249.554 179.687 250.085 180.054 250.773 180.382C251.46 180.694 252.101 180.89 252.695 180.968L252.835 180.757Z" fill="#0141B3"/>
<path fill-rule="evenodd" clip-rule="evenodd" d="M271.248 780.225C270.797 780.225 270.377 780.438 270.116 780.873C269.286 781.292 269.001 782.258 269.42 782.954C269.563 783.23 269.697 783.65 269.974 783.927V790.445C269.697 792.383 269.697 794.463 269.974 796.409C270.116 797.097 270.393 797.516 270.805 798.07V798.212C270.805 798.901 271.358 799.597 272.197 799.597H272.751C272.885 799.731 273.027 799.874 273.162 799.874L276.912 801.535C276.912 802.088 277.046 802.65 277.046 803.204C277.046 803.615 277.323 804.034 277.465 804.311C277.465 805.696 277.6 807.088 277.877 808.472C278.019 809.026 278.438 809.445 278.992 809.579C279.546 809.722 280.242 809.722 280.796 809.722C281.073 809.856 281.207 809.999 281.484 809.999C286.064 809.856 290.636 809.722 295.217 809.445C295.77 809.445 296.324 808.891 296.467 808.33C297.155 804.034 297.432 799.731 297.993 795.436C297.993 795.056 297.653 794.843 297.329 794.843C297.068 794.843 296.807 794.985 296.743 795.294V795.713C296.435 795.507 296.055 795.381 295.715 795.381C295.589 795.381 295.47 795.396 295.351 795.436C294.623 795.555 293.911 795.61 293.207 795.61C287.259 795.61 282.362 791.623 278.019 787.534C276.912 784.623 274.831 781.981 272.054 780.462C271.793 780.304 271.516 780.225 271.248 780.225Z" fill="#924430"/>
<path fill-rule="evenodd" clip-rule="evenodd" d="M281.31 729.939C281.294 729.939 281.262 729.955 281.207 729.979V730.255C281.207 730.145 281.389 729.939 281.31 729.939Z" fill="#F3D5B9"/>
<path fill-rule="evenodd" clip-rule="evenodd" d="M274.847 729.947C272.751 729.947 270.67 730.05 268.59 730.256C271.224 745.372 272.055 761.185 272.474 776.578C270.805 776.578 269.563 778.659 269.697 780.462C269.974 782.258 270.67 783.927 271.778 785.311C274.966 790.168 278.296 795.159 283.011 798.07C285.368 799.549 288.177 800.38 290.914 800.38C293.809 800.38 296.617 799.447 298.682 797.374C299.236 796.963 299.512 796.409 299.655 795.713C299.789 794.329 298.824 793.498 297.851 792.802C293.413 789.195 289.252 785.453 285.368 781.293C283.288 779.347 281.627 777.132 280.654 774.498C279.957 772.141 279.681 769.783 279.957 767.284C279.957 754.944 280.377 742.596 281.207 730.256C279.064 730.05 276.943 729.947 274.847 729.947Z" fill="#F3D5B9"/>
<path fill-rule="evenodd" clip-rule="evenodd" d="M293.706 787.692C293.572 787.692 293.429 787.731 293.279 787.811C292.029 787.945 291.056 788.364 290.226 789.195C289.672 789.749 289.253 790.445 289.118 791.133C288.699 792.248 288.699 793.498 288.699 794.605C287.591 793.356 286.199 792.248 284.538 791.552C283.114 790.239 281.263 789.614 279.388 789.614C278.882 789.614 278.376 789.662 277.877 789.749C276.77 789.891 275.805 790.445 275.108 791.275C274.436 791.948 275.029 793.166 275.797 793.166C275.979 793.166 276.168 793.095 276.358 792.936C277.355 792.185 278.376 791.861 279.396 791.861C284.206 791.861 289.023 799.027 291.199 802.231C291.452 802.571 291.784 802.713 292.108 802.713C292.844 802.713 293.524 801.986 293.137 801.124C292.718 800.293 292.164 799.32 291.887 798.624C291.476 797.793 291.476 797.24 291.199 796.544C291.199 796.409 291.199 796.267 291.056 796.132C290.661 794.297 290.273 790.255 292.662 790.255C292.812 790.255 292.971 790.271 293.137 790.302C293.279 790.358 293.414 790.389 293.532 790.389C294.782 790.389 294.814 787.692 293.706 787.692Z" fill="#924430"/>
<path fill-rule="evenodd" clip-rule="evenodd" d="M259.69 780.225C259.421 780.225 259.144 780.304 258.883 780.462C256.107 781.981 254.026 784.623 252.919 787.534C248.576 791.623 243.568 795.61 237.691 795.61C237.002 795.61 236.298 795.555 235.579 795.436C235.436 795.396 235.294 795.381 235.167 795.381C234.811 795.381 234.534 795.507 234.337 795.713C234.194 795.578 234.194 795.436 234.194 795.294C234.131 794.985 233.87 794.843 233.609 794.843C233.285 794.843 232.944 795.056 232.944 795.436C233.498 799.731 233.917 804.169 234.471 808.33C234.613 808.891 235.025 809.445 235.721 809.445C240.293 809.722 244.874 809.856 249.446 809.999C249.731 809.999 249.865 809.856 250.142 809.722C250.696 809.722 251.392 809.722 251.946 809.579C252.499 809.445 252.919 809.026 253.053 808.472C253.33 807.088 253.472 805.696 253.472 804.311C253.607 804.034 253.884 803.615 253.884 803.204C253.884 802.65 254.026 802.088 254.026 801.535L257.768 800.016C257.91 799.874 258.045 799.731 258.187 799.597H258.741C259.572 799.597 260.125 798.901 260.125 798.212V798.07C260.545 797.651 260.821 797.097 260.964 796.543C261.241 794.463 261.241 792.383 260.964 790.445V783.927C261.241 783.65 261.375 783.23 261.518 782.954C261.929 782.123 261.652 781.292 260.821 780.873C260.56 780.438 260.141 780.225 259.69 780.225Z" fill="#924430"/>
<path fill-rule="evenodd" clip-rule="evenodd" d="M249.613 729.939C249.502 729.939 249.589 730.145 249.589 730.255H249.732C249.732 730.121 249.732 730.121 249.732 729.979C249.676 729.955 249.637 729.939 249.613 729.939Z" fill="#F3D5B9"/>
<path fill-rule="evenodd" clip-rule="evenodd" d="M256.597 729.923C254.311 729.923 252.017 730.026 249.731 730.256C250.419 742.596 250.839 754.943 250.973 767.283C251.115 769.783 250.839 772.14 250.285 774.497C249.169 777.132 247.508 779.346 245.57 781.292C241.686 785.453 237.525 789.195 232.945 792.802C232.114 793.498 231.007 794.328 231.141 795.578C231.283 796.267 231.695 796.82 232.114 797.239C234.163 799.359 236.932 800.293 239.803 800.293C242.556 800.293 245.404 799.431 247.785 797.936C252.642 795.017 255.83 790.025 259.018 785.176C260.126 783.784 260.964 782.123 261.241 780.32C261.241 778.658 260.126 776.436 258.33 776.436C258.884 761.042 259.572 745.23 262.206 730.121C260.339 729.995 258.472 729.923 256.597 729.923Z" fill="#F3D5B9"/>
<path fill-rule="evenodd" clip-rule="evenodd" d="M237.478 787.794C236.085 787.794 236.061 790.618 237.39 790.618C237.478 790.618 237.564 790.603 237.659 790.579C237.841 790.547 238.015 790.531 238.174 790.531C240.65 790.531 240.135 794.447 239.74 796.409C239.74 796.543 239.74 796.686 239.605 796.82C239.463 797.516 239.186 798.212 239.052 798.9C238.775 799.454 238.213 800.569 237.802 801.4C237.414 802.262 238.095 802.998 238.83 802.998C239.155 802.998 239.487 802.848 239.74 802.507C241.915 799.304 246.638 792.137 251.416 792.137C252.429 792.137 253.449 792.462 254.446 793.213C254.651 793.379 254.865 793.442 255.055 793.442C255.862 793.442 256.392 792.224 255.83 791.552C255.134 790.579 254.169 790.025 253.054 789.891C252.508 789.756 251.962 789.701 251.408 789.701C249.573 789.701 247.753 790.381 246.258 791.552C244.732 792.382 243.347 793.498 242.097 794.74C242.24 793.498 242.097 792.382 241.82 791.275C241.686 790.444 241.267 789.891 240.713 789.337C239.882 788.498 238.775 788.087 237.659 787.81C237.596 787.794 237.533 787.794 237.478 787.794Z" fill="#924430"/>
<path fill-rule="evenodd" clip-rule="evenodd" d="M258.915 381.185C254.216 381.185 249.082 382.956 244.138 382.956C243.497 382.956 242.864 382.933 242.239 382.862C241.725 382.798 241.218 382.759 240.712 382.759C232.991 382.759 226.987 390.527 222.818 397.567C203.825 430.291 192.726 466.9 190.227 504.624C189.815 510.865 189.673 517.383 192.03 523.205C194.19 528.869 199.371 533.623 205.265 533.623C205.431 533.623 205.597 533.615 205.763 533.607C211.308 607.663 219.907 681.441 231.417 754.943C240.918 758.155 250.806 759.753 260.671 759.753C271.263 759.753 281.84 757.91 291.886 754.247C296.466 700.165 303.396 645.798 306.726 591.573C307.699 575.215 308.672 558.429 304.511 542.482C313.522 541.652 316.156 529.169 317.263 519.74C321.29 487.846 320.317 453.176 302.985 426.684C294.663 414.067 283.01 403.942 273.858 391.879C271.358 388.549 268.866 385.084 265.401 382.862C263.392 381.604 261.201 381.185 258.915 381.185Z" fill="#1B2B66"/>
<path fill-rule="evenodd" clip-rule="evenodd" d="M225.738 518.941C225.319 518.941 224.899 519.258 224.899 519.875C225.738 600.314 236.552 679.638 250.008 758.827C250.142 759.381 250.696 759.792 251.25 759.792C253.789 759.935 256.336 759.998 258.876 759.998C269.262 759.998 279.673 758.891 289.806 756.881C291.483 756.494 291.001 754.065 289.585 754.065C289.482 754.065 289.371 754.081 289.252 754.113C283.011 755.355 276.769 756.193 270.528 756.747C268.171 757.024 265.679 757.024 263.321 757.158C261.929 757.158 258.939 757.593 256.566 757.593C255.379 757.593 254.351 757.482 253.749 757.158C250.285 754.943 250.008 745.926 249.312 742.042C248.339 736.639 247.366 731.228 246.4 725.818C242.374 702.657 238.909 679.495 236.132 656.065C230.73 610.85 228.095 565.367 226.569 519.875C226.569 519.258 226.149 518.941 225.738 518.941Z" fill="#F8AC5E"/>
<path fill-rule="evenodd" clip-rule="evenodd" d="M274.278 494.642L234.471 495.884C229.891 504.767 225.872 513.776 221.988 523.071H286.341C279.546 515.026 275.243 505.178 274.278 494.642Z" fill="#F3D5B9"/>
<path fill-rule="evenodd" clip-rule="evenodd" d="M231.006 502.82C229.891 505.178 228.926 507.4 227.818 509.615H278.162C277.323 507.4 276.492 505.178 275.939 502.82H231.006Z" fill="#F8AC5E"/>
<path fill-rule="evenodd" clip-rule="evenodd" d="M260.125 298.27C257.214 298.546 254.303 298.958 251.392 299.519C245.427 300.761 239.605 302.43 233.64 304.234V307.002V330.717C233.64 329.333 232.533 328.083 231.141 327.806C231.022 327.783 230.911 327.775 230.8 327.775C230.263 327.775 229.82 328.044 229.479 328.502C229.479 328.914 229.337 329.333 229.337 329.61C229.337 331.825 229.614 333.905 230.033 335.986C230.452 337.931 231.694 339.593 233.363 340.566C233.363 346.941 235.998 353.048 240.57 357.343C240.989 357.762 241.543 358.182 241.962 358.459C242.374 367.745 241.685 377.174 240.159 386.326C235.855 389.103 231.837 392.291 228.229 395.898C232.81 408.799 245.981 416.836 250.284 429.738C254.857 418.086 260.964 407.13 268.59 397.282C265.536 395.067 263.044 392.567 260.821 389.657C260.402 379.808 259.991 369.691 259.991 359.7C262.206 357.486 264.009 354.575 264.84 351.244C265.955 348.191 267.063 345.003 268.036 341.815C269.839 341.815 270.804 339.458 271.501 337.512C272.054 335.851 272.474 334.19 272.608 332.386C272.75 331.967 272.75 331.413 272.608 330.86C272.355 330.251 271.77 329.918 271.2 329.918C270.852 329.918 270.512 330.045 270.251 330.306C269.42 330.994 268.866 331.825 268.447 332.798C268.866 323.092 269.001 313.386 269.42 303.68V302.984L268.447 302.288C265.813 300.484 263.179 299.242 260.125 298.27Z" fill="#F7A285"/>
<path fill-rule="evenodd" clip-rule="evenodd" d="M248.719 280.456C242.319 280.456 236.046 282.734 231.142 287.037C223.935 293.136 218.659 303.119 217.14 313.94C216.768 313.711 216.396 313.6 216.032 313.6C213.762 313.6 211.721 317.634 212.559 320.735C213.667 324.342 216.578 326.28 219.355 327.949C219.094 327.862 218.833 327.815 218.572 327.815C216.776 327.815 215.122 329.8 214.64 332.11C214.221 334.744 214.498 337.513 215.471 340.012C216.301 342.504 217.417 344.861 218.801 346.942C221.198 350.145 224.497 351.577 227.898 351.577C231.585 351.577 235.397 349.9 238.356 346.942C244.044 341.397 247.089 332.521 249.17 323.646C249.866 320.039 251.116 316.297 252.5 312.833C254.446 309.099 257.785 306.497 260.901 306.497C263.346 306.497 265.664 308.094 267.064 311.994C268.448 316.02 268.037 320.735 267.206 325.03C266.091 329.191 265.402 333.494 265.26 337.789C265.402 341.397 266.787 345.28 269.421 346.53C269.737 346.665 270.062 346.72 270.386 346.72C272.815 346.72 275.362 343.374 274.136 340.566C275.109 341.262 276.39 341.776 277.466 341.776C278.542 341.776 279.404 341.262 279.547 339.87C279.547 338.905 279.404 337.932 278.993 337.101C276.493 330.718 277.743 322.95 277.324 315.744C276.92 308.759 273.535 300.738 268.155 300.738C267.981 300.738 267.799 300.746 267.617 300.762C268.867 296.324 268.037 291.609 265.402 288.002C263.18 284.815 259.849 282.6 256.107 281.484C253.671 280.796 251.187 280.456 248.719 280.456Z" fill="#0F1C4D"/>
<path fill-rule="evenodd" clip-rule="evenodd" d="M260.956 380.346C260.774 380.346 260.592 380.354 260.402 380.37C260.687 387.299 255.134 404.639 252.919 410.041C249.731 404.496 241.686 392.433 240.713 385.915C240.294 383.415 241.686 381.754 241.132 381.2C240.792 381.121 240.436 381.082 240.056 381.082C236.963 381.082 232.328 383.803 226.149 392.567C230.31 406.442 237.936 419.193 248.204 429.461C241.686 443.604 234.195 457.194 225.596 470.096C226.426 475.641 227.953 480.909 230.176 486.043C232.256 470.926 243.347 459.274 251.527 446.658C257.491 436.952 262.902 426.827 267.34 416.282C270.67 409.076 274.001 402.969 275.52 394.925C274.135 391.46 272.197 388.272 269.697 385.361C267.332 382.727 264.334 380.346 260.956 380.346Z" fill="#F3D5B9"/>
<path fill-rule="evenodd" clip-rule="evenodd" d="M263.179 380.647C263.179 394.237 259.018 407.684 253.884 420.309C243.901 412.96 236.133 396.728 234.194 383.558C232.391 385.085 230.73 386.746 229.203 388.549C231.695 402.835 242.24 415.318 251.669 425.435C250.838 427.515 250.008 429.461 249.169 431.399C242.516 446.658 234.194 460.801 226.703 475.641C226.98 477.025 227.399 478.41 227.819 479.802C240.57 465.935 248.616 444.854 256.249 427.792C262.625 413.648 267.34 399.639 269.001 384.665C267.34 382.862 265.402 381.478 263.179 380.647Z" fill="#F8AC5E"/>
<path fill-rule="evenodd" clip-rule="evenodd" d="M250.443 418.022C250.356 418.022 250.285 418.133 250.285 418.363C249.446 421.274 247.231 425.854 246.812 427.934C245.847 432.095 245.151 436.256 244.731 440.416C243.901 446.238 244.32 450.399 240.855 455.256C236.694 461.22 231.695 466.623 226.292 471.614C226.015 478.409 228.23 485.07 232.533 490.338C236.409 479.801 240.855 469.399 245.704 459.274C246.258 459.694 246.812 459.97 247.508 460.105C247.682 460.144 247.864 460.16 248.046 460.16C248.6 460.16 249.169 460.002 249.589 459.694C251.115 458.444 251.25 455.533 251.25 452.899C251.25 446.238 251.115 439.443 250.973 432.791L251.811 453.31C251.946 455.81 252.365 458.721 253.884 459.828C254.319 460.002 254.746 460.121 255.173 460.121C255.434 460.121 255.703 460.073 255.964 459.97C256.384 459.828 256.661 459.694 256.937 459.551L276.081 494.364C279.127 491.034 281.073 486.731 281.484 482.293L259.572 451.649C259.16 447.623 258.464 443.747 257.491 439.997C256.803 435.836 255.83 431.818 254.723 427.792C254.169 425.854 251.669 421.55 250.696 418.639C250.696 418.236 250.554 418.022 250.443 418.022Z" fill="#F7A285"/>
<path fill-rule="evenodd" clip-rule="evenodd" d="M226.22 468.846C225.943 468.846 225.667 468.98 225.595 469.257C224.069 478.409 228.649 488.534 233.641 495.748C233.917 496.168 234.4 496.373 234.867 496.373C235.341 496.373 235.792 496.168 235.998 495.748C237.105 493.81 237.525 490.48 236.275 489.088C236.552 488.811 236.694 488.4 236.552 487.981C236.552 487.15 236.275 486.454 235.855 485.766C235.555 485.275 235.088 485.054 234.645 485.054C234.068 485.054 233.514 485.418 233.364 486.043C233.221 486.873 232.944 487.846 232.533 488.677C231.283 486.454 230.31 484.097 229.479 481.882C228.23 477.721 227.818 473.418 226.845 469.257C226.774 468.98 226.497 468.846 226.22 468.846Z" fill="#0F1C4D"/>
<path fill-rule="evenodd" clip-rule="evenodd" d="M281.729 478.655C281.104 478.655 280.448 479.034 280.377 479.802C279.823 484.097 278.715 488.4 277.046 492.419C276.493 492.419 276.216 492.695 276.081 493.115C276.081 493.249 276.081 493.249 276.081 493.392C275.781 493.091 275.401 492.949 275.045 492.949C274.578 492.949 274.159 493.194 274.001 493.668C273.439 493.945 273.162 494.499 273.305 495.053C273.581 495.749 273.724 496.579 274.001 497.41C274.135 497.552 274.278 497.829 274.412 497.964C274.554 498.106 274.554 498.383 274.689 498.525C274.966 498.937 275.385 499.142 275.804 499.142C276.216 499.142 276.635 498.937 276.912 498.525C280.1 492.838 282.18 486.32 282.876 479.802C282.94 479.034 282.354 478.655 281.729 478.655Z" fill="#0F1C4D"/>
<path fill-rule="evenodd" clip-rule="evenodd" d="M373.116 394.299C402.849 394.299 426.954 379.684 426.954 361.657C426.954 343.616 402.849 329.015 373.116 329.015C343.384 329.015 319.3 343.63 319.3 361.657C319.3 363.05 319.442 364.424 319.735 365.776C319.279 366.069 318.783 366.368 318.307 366.66C311.312 367.856 304.216 368.468 297.112 368.468C296.521 368.468 295.929 368.461 295.338 368.455C306.5 376.51 316.859 378.209 323.575 378.209C324.704 378.209 325.73 378.162 326.641 378.087C335.967 387.794 353.281 394.299 373.116 394.299Z" fill="#D4D4D4"/>
<path d="M343.126 371.021C340.595 369.584 338.79 368.732 337.712 368.467C337.665 369.561 337.329 370.42 336.704 371.045C335.86 371.889 334.673 372.311 333.142 372.311C331.813 372.311 330.806 371.967 330.118 371.279C329.478 370.639 329.157 369.889 329.157 369.029C329.157 368.154 329.524 367.35 330.259 366.615C330.946 365.928 332.056 365.584 333.587 365.584C334.524 365.584 335.126 365.607 335.392 365.654C335.251 363.248 335.048 359.92 334.782 355.67H336.774C337.774 355.904 337.938 356.303 337.267 356.865C337.267 357.537 337.313 358.592 337.407 360.029C338.501 360.076 340.438 359.896 343.22 359.49V361.904C341.188 362.186 339.313 362.35 337.595 362.396C337.688 363.646 337.735 364.865 337.735 366.053C339.485 366.459 341.665 367.342 344.274 368.701L343.126 371.021ZM335.321 367.904C334.806 367.795 334.259 367.74 333.681 367.74C332.774 367.74 332.157 367.904 331.829 368.232C331.548 368.514 331.407 368.779 331.407 369.029C331.407 369.264 331.493 369.475 331.665 369.662C331.946 369.928 332.462 370.061 333.212 370.061C333.915 370.061 334.407 369.928 334.688 369.662C335.11 369.225 335.321 368.639 335.321 367.904ZM348.241 370.67C350.632 370.139 352.382 369.318 353.491 368.209C354.382 367.318 354.827 366.271 354.827 365.068C354.827 364.256 354.616 363.639 354.194 363.217C353.819 362.842 353.343 362.678 352.765 362.725C351.374 362.865 349.249 363.404 346.39 364.342L345.218 361.553C347.468 361.131 349.429 360.717 351.101 360.311C351.991 360.107 352.679 360.006 353.163 360.006C354.397 360.006 355.405 360.404 356.187 361.201C357.077 362.092 357.522 363.35 357.522 364.975C357.522 367.068 356.804 368.842 355.366 370.295C354.101 371.561 352.296 372.514 349.952 373.154L348.241 370.67ZM355.554 358.857C353.257 358.639 350.522 358.193 347.351 357.521L347.983 354.85C351.077 355.553 353.772 356.021 356.069 356.256L355.554 358.857ZM364.442 370.951C362.755 370.951 361.567 370.607 360.88 369.92C360.192 369.232 359.849 368.326 359.849 367.201C359.849 366.607 359.981 365.795 360.247 364.764L362.825 365.115C362.497 366.193 362.333 366.889 362.333 367.201C362.333 367.545 362.442 367.826 362.661 368.045C362.942 368.326 363.56 368.467 364.513 368.467H373.231V370.951H364.442ZM360.997 357.264H371.708V359.748H360.997V357.264ZM382.958 358.529C382.067 358.686 380.583 358.842 378.505 358.998L378.06 356.607C381.841 356.436 384.161 356.186 385.021 355.857L386.028 355.459L387.575 357.076C388.294 357.686 388.153 358.084 387.153 358.271C385.169 359.803 383.521 361.084 382.208 362.115C384.396 361.834 387.419 361.521 391.278 361.178V363.615L387.997 363.85C386.138 363.99 384.653 364.615 383.544 365.725C383.013 366.256 382.747 366.92 382.747 367.717C382.747 368.326 382.935 368.818 383.31 369.193C383.997 369.881 385.692 370.248 388.396 370.295L387.435 373.107C384.528 372.873 382.536 372.217 381.458 371.139C380.614 370.295 380.192 369.287 380.192 368.115C380.192 366.725 380.614 365.615 381.458 364.787C381.88 364.365 382.13 364.186 382.208 364.248C380.208 364.592 377.942 364.99 375.411 365.443L374.849 362.982C376.192 362.779 377.349 362.607 378.317 362.467C379.614 361.561 381.161 360.248 382.958 358.529Z" fill="#344A9F"/>
</svg>
