<svg width="92" height="90" viewBox="0 0 92 90" fill="none" xmlns="http://www.w3.org/2000/svg">
<path fill-rule="evenodd" clip-rule="evenodd" d="M24.2152 1.3286C13.4931 4.51168 4.46191 13.6758 0 31.6224C0 31.6224 11.8276 90.0756 44.6487 89.4019C49.6357 89.3311 54.2454 88.59 58.4707 87.3357C81.9615 80.3618 93.5629 57.4609 91.4401 45.2877C87.7543 22.2855 50.7839 -6.5589 24.2152 1.3286Z" fill="#344A9F"/>
<path fill-rule="evenodd" clip-rule="evenodd" d="M45.4315 56.8535L25.0063 58.5543H23.3016C19.5575 58.5543 16.3843 61.6212 16.3843 65.3614C16.3843 69.1094 19.5614 72.1724 23.3016 72.1724H67.5496C67.5575 72.1724 67.5654 72.1724 67.5732 72.1724C68.5102 72.1724 69.2661 71.4086 69.2543 70.4677C69.2622 69.5346 68.4984 68.7748 67.5693 68.7748C67.5654 68.7748 67.5614 68.7748 67.5575 68.7748C65.6874 68.7748 62.4551 67.2472 62.4551 65.3693C62.4551 63.4992 65.6874 61.9638 67.5575 61.9638C68.4984 61.9638 69.2622 61.2 69.2622 60.259C69.2622 59.3181 68.4984 58.5543 67.5575 58.5543L45.4315 56.8535Z" fill="#0F1C4D"/>
<path fill-rule="evenodd" clip-rule="evenodd" d="M45.4316 56.8535V72.1724H67.5497C67.5576 72.1724 67.5655 72.1724 67.5734 72.1724C68.5104 72.1724 69.2663 71.4086 69.2545 70.4677C69.2623 69.5346 68.4986 68.7748 67.5694 68.7748C67.5655 68.7748 67.5616 68.7748 67.5576 68.7748C65.6796 68.7748 62.4474 67.2472 62.4474 65.3693C62.4474 63.4992 65.6796 61.9638 67.5576 61.9638C68.4986 61.9638 69.2623 61.2 69.2623 60.259C69.2623 59.3181 68.4986 58.5543 67.5576 58.5543L45.4316 56.8535Z" fill="#0F1C4D"/>
<path fill-rule="evenodd" clip-rule="evenodd" d="M23.3014 61.9644C21.3959 61.9644 19.7856 63.5195 19.7856 65.3699C19.7856 67.2163 21.3959 68.7754 23.3014 68.7754L67.5573 68.7715C65.7306 68.6888 64.2935 67.1927 64.2935 65.362C64.2935 63.5352 65.7306 62.0352 67.5573 61.9644H23.3014Z" fill="#FFE4DF"/>
<path fill-rule="evenodd" clip-rule="evenodd" d="M45.4316 61.9644V68.7715H67.5577C65.7309 68.6888 64.2939 67.1927 64.2939 65.362C64.2939 63.5352 65.7309 62.0352 67.5577 61.9644H45.4316Z" fill="#FFE4DF"/>
<path fill-rule="evenodd" clip-rule="evenodd" d="M31.8015 28.665C30.9039 28.665 30.0968 29.3973 30.1125 30.3816V46.6414C30.1047 47.5824 30.8606 48.3461 31.7936 48.3461C31.8015 48.3461 31.8054 48.3461 31.8133 48.3461H59.0456C59.0535 48.3461 59.0614 48.3461 59.0693 48.3461C60.0063 48.3461 60.7622 47.5824 60.7503 46.6414V30.3816C60.7503 29.8146 60.4708 29.2792 59.9984 28.9524C59.6952 28.7674 59.3724 28.6729 59.0456 28.6729C58.8173 28.6729 58.5889 28.7202 58.3645 28.8147L45.4314 34.3658L32.4944 28.8147C32.2661 28.7123 32.0299 28.665 31.8015 28.665Z" fill="#642A1F"/>
<path fill-rule="evenodd" clip-rule="evenodd" d="M70.9631 25.9917L67.5576 26.2082V36.2043C67.5576 37.1453 68.3214 37.9091 69.2623 37.9091C70.2033 37.9091 70.9631 37.1453 70.9631 36.2043V25.9917Z" fill="#F8AC5E"/>
<path fill-rule="evenodd" clip-rule="evenodd" d="M59.038 28.6729C58.8135 28.6729 58.5852 28.7201 58.3647 28.8146L45.4316 34.3658V48.3461H59.0458C59.0498 48.3461 59.0537 48.3461 59.0576 48.3461C59.9946 48.3461 60.7545 47.5823 60.7505 46.6414V30.3815C60.7505 29.8146 60.471 29.2792 59.9986 28.9524C59.6954 28.7713 59.3686 28.6729 59.038 28.6729Z" fill="#642A1F"/>
<path fill-rule="evenodd" clip-rule="evenodd" d="M45.4279 14.0781C45.1956 14.0781 44.9673 14.1254 44.7508 14.2159L20.924 24.4246C19.5618 25.023 19.5618 26.9561 20.924 27.5585L44.7508 37.7711C44.9673 37.8616 45.1956 37.9089 45.4279 37.9089C45.6602 37.9089 45.8925 37.8616 46.113 37.7711L69.9358 27.5624C71.298 26.964 71.298 25.0309 69.9358 24.4285V24.4246L46.113 14.2159C45.8925 14.1254 45.6602 14.0781 45.4279 14.0781Z" fill="#642A1F"/>
<path fill-rule="evenodd" clip-rule="evenodd" d="M45.4316 14.0781V37.9089C45.4435 37.9089 45.4553 37.9089 45.4711 37.9089C45.6915 37.9089 45.908 37.8616 46.1127 37.7711L69.9356 27.5585C70.5577 27.2868 70.9593 26.6726 70.9593 25.9915C70.9593 25.3144 70.5577 24.7002 69.9356 24.4246L46.1127 14.2159C45.8962 14.1333 45.66 14.086 45.4316 14.0781Z" fill="#642A1F"/>
<path fill-rule="evenodd" clip-rule="evenodd" d="M45.4434 24.2871C45.4394 24.2871 45.4355 24.2871 45.4316 24.2871C43.9119 24.2871 43.1521 26.1218 44.223 27.2005C44.5694 27.543 44.9946 27.7005 45.4119 27.7005C46.2899 27.7005 47.1324 27.0194 47.1324 25.9918C47.1403 25.0509 46.3765 24.2871 45.4434 24.2871Z" fill="#E7654B"/>
<path fill-rule="evenodd" clip-rule="evenodd" d="M45.4316 24.2871V27.6926C46.3726 27.6926 47.1324 26.9328 47.1324 25.9918C47.1324 25.0509 46.3726 24.2871 45.4316 24.2871Z" fill="#E7654B"/>
<path fill-rule="evenodd" clip-rule="evenodd" d="M36.9196 44.9404L33.5142 48.4129V53.8893L36.9196 58.5546H53.9354L57.3409 54.2672V50.7947L53.9354 44.9404H36.9196Z" fill="#E7654B"/>
<path fill-rule="evenodd" clip-rule="evenodd" d="M45.4316 44.9404V58.5546H53.9435L57.3489 54.2672V50.7947L53.9435 44.9404H45.4316Z" fill="#E7654B"/>
<path fill-rule="evenodd" clip-rule="evenodd" d="M25.0023 44.9404C22.1834 44.9444 19.896 47.2239 19.896 50.0428V53.4522C19.896 56.2711 22.1834 58.5546 25.0023 58.5625H26.7031L30.1125 54.2121V48.8971L26.7031 44.9404H25.0023Z" fill="#E7654B"/>
<path fill-rule="evenodd" clip-rule="evenodd" d="M64.1516 44.9404L60.7422 49.3735V54.1884L64.1516 58.5546H69.254C72.0729 58.5546 74.4784 56.2633 74.4784 53.4522V50.0428C74.4784 47.2318 72.0729 44.9404 69.254 44.9404H64.1516Z" fill="#E7654B"/>
<path fill-rule="evenodd" clip-rule="evenodd" d="M26.7109 44.9404V58.5546H36.9196V44.9404H26.7109Z" fill="#924430"/>
<path fill-rule="evenodd" clip-rule="evenodd" d="M53.9434 44.9404V58.5546H64.152V44.9404H53.9434Z" fill="#924430"/>
<path fill-rule="evenodd" clip-rule="evenodd" d="M63.1558 47.8462C54.7149 47.8462 47.8369 54.7242 47.8369 63.1612C47.8369 71.606 54.7149 78.4801 63.1558 78.4801C71.5928 78.4801 78.4708 71.606 78.4708 63.1612C78.4708 54.7242 71.5928 47.8462 63.1558 47.8462Z" fill="#F3D5B9"/>
<path fill-rule="evenodd" clip-rule="evenodd" d="M63.1562 47.8462V78.4801C71.5933 78.4801 78.4713 71.606 78.4713 63.1612C78.4713 54.7242 71.5933 47.8462 63.1562 47.8462Z" fill="#F8AC5E"/>
<path fill-rule="evenodd" clip-rule="evenodd" d="M63.1556 51.2476C56.5847 51.2476 51.2383 56.594 51.2383 63.1609C51.2383 69.7318 56.5847 75.0782 63.1556 75.0782C69.7226 75.0782 75.069 69.7318 75.069 63.1609C75.069 56.594 69.7226 51.2476 63.1556 51.2476Z" fill="#F8AC5E"/>
<path fill-rule="evenodd" clip-rule="evenodd" d="M63.1562 51.2476V75.0782C69.7232 75.0782 75.0696 69.7318 75.0696 63.1609C75.0696 56.594 69.7232 51.2476 63.1562 51.2476Z" fill="#F3D5B9"/>
<path fill-rule="evenodd" clip-rule="evenodd" d="M63.1562 51.2476C62.2152 51.2476 61.4554 52.0113 61.4554 52.9444V54.9601C59.4711 55.6727 58.0459 57.5428 58.0459 59.7594C58.042 62.5782 60.3255 64.8656 63.1522 64.8656C64.668 64.8656 65.4318 66.6964 64.353 67.7712C64.0066 68.1176 63.5775 68.2751 63.1601 68.2751C62.2861 68.2751 61.4475 67.594 61.4475 66.5665C61.4475 65.6255 60.6837 64.8656 59.7428 64.8656C58.8018 64.8656 58.042 65.6255 58.042 66.5665C58.042 68.7791 59.4711 70.657 61.4475 71.3696V73.3775C61.4475 74.3184 62.2113 75.0782 63.1522 75.0782C64.0932 75.0782 64.853 74.3184 64.853 73.3775V71.3696C66.8294 70.6491 68.2625 68.7791 68.2625 66.5665C68.2625 63.7475 65.983 61.4641 63.168 61.4641C63.164 61.4641 63.1601 61.4641 63.1562 61.4641C61.6404 61.4641 60.8766 59.6255 61.9475 58.5507C62.294 58.2043 62.7231 58.0507 63.1404 58.0507C64.0184 58.0507 64.8609 58.7318 64.8609 59.7594C64.8609 60.7003 65.6207 61.4641 66.5656 61.4641C67.5066 61.4641 68.2664 60.7003 68.2664 59.7594C68.2664 57.5428 66.8294 55.6727 64.8609 54.9601V52.9444C64.8609 52.0113 64.0971 51.2476 63.1562 51.2476Z" fill="#F3D5B9"/>
<path fill-rule="evenodd" clip-rule="evenodd" d="M63.1637 61.4561C63.1597 61.4561 63.1558 61.4561 63.1519 61.4561V64.8655C64.0928 64.8655 64.8526 65.6253 64.8526 66.5663C64.8526 67.5072 64.0928 68.271 63.1519 68.271V75.0781C63.1597 75.0781 63.1637 75.0781 63.1715 75.0781C64.1046 75.0781 64.8605 74.3143 64.8526 73.3773V71.3694C66.8291 70.649 68.2621 68.7789 68.2621 66.5663C68.2661 63.7474 65.9826 61.4561 63.1637 61.4561Z" fill="#F8AC5E"/>
<path fill-rule="evenodd" clip-rule="evenodd" d="M63.1681 51.2476C63.1641 51.2476 63.1602 51.2476 63.1562 51.2476V58.0546C63.1602 58.0546 63.1641 58.0546 63.1681 58.0546C64.1051 58.0546 64.8688 58.8223 64.861 59.7594C64.861 60.7003 65.6208 61.4641 66.5657 61.4641C67.5066 61.4641 68.2665 60.7003 68.2665 59.7594C68.2665 57.5468 66.8295 55.6767 64.861 54.9601V52.9523C64.8688 52.0153 64.1051 51.2476 63.1681 51.2476Z" fill="#F8AC5E"/>
</svg>
