<svg width="92" height="90" viewBox="0 0 92 90" fill="none" xmlns="http://www.w3.org/2000/svg">
<path fill-rule="evenodd" clip-rule="evenodd" d="M91.0722 27.8221C89.1501 16.8038 81.0917 6.77367 63.7815 0.26709C63.7815 0.26709 4.35329 5.2588 1.22768 37.9382C0.721396 42.9 0.924597 47.5646 1.68201 51.9065C5.89298 76.0463 27.2988 90.2173 39.6358 89.5158C62.9097 88.5136 95.8349 55.1247 91.0722 27.8221Z" fill="#344A9F"/>
<path fill-rule="evenodd" clip-rule="evenodd" d="M33.4887 17.8501C24.7367 17.8501 18.0596 25.1729 18.0596 34.9091C18.0596 47.2635 29.6108 55.0942 45.9848 69.8304C46.2997 70.1218 46.7052 70.2714 47.1068 70.2714C47.5084 70.2714 47.91 70.1218 48.2289 69.8304C64.5989 55.0942 76.1541 47.2635 76.1541 34.9091C76.1541 25.1729 69.469 17.8501 60.721 17.8501C53.2682 17.8501 49.1501 23.2635 47.1068 27.2477C45.0635 23.2635 40.9415 17.8501 33.4887 17.8501Z" fill="#E7654B"/>
<path fill-rule="evenodd" clip-rule="evenodd" d="M60.7329 17.8584C60.729 17.8584 60.725 17.8584 60.7211 17.8584C53.2683 17.8584 49.1503 23.2639 47.1069 27.2482V70.2757C47.1148 70.2757 47.1227 70.2757 47.1306 70.2757C47.536 70.2757 47.9337 70.1143 48.229 69.8309C64.5991 55.0946 76.1542 47.2639 76.1542 34.9096C76.1542 25.1773 69.4731 17.8584 60.7329 17.8584Z" fill="#924430"/>
<path fill-rule="evenodd" clip-rule="evenodd" d="M43.6778 38.2759C42.7408 38.2759 41.9849 39.0397 41.9967 39.9767V43.3861H38.5873C38.5794 43.3861 38.5715 43.3861 38.5676 43.3861C37.6266 43.3861 36.8707 44.1499 36.8865 45.0869V51.8979C36.8707 52.8349 37.6345 53.5987 38.5755 53.5987C38.5794 53.5987 38.5834 53.5987 38.5873 53.5987H41.9967V57.0082C41.9849 57.9452 42.7447 58.709 43.6857 58.709C43.6896 58.709 43.6935 58.709 43.6975 58.709H50.5085C50.5124 58.709 50.5124 58.709 50.5164 58.709C51.4534 58.709 52.2172 57.9452 52.2093 57.0082V53.5987H55.6187C55.6227 53.5987 55.6266 53.5987 55.6305 53.5987C56.5636 53.5987 57.3274 52.8349 57.3195 51.8979V45.0869C57.3274 44.1499 56.5715 43.3861 55.6384 43.3861C55.6305 43.3861 55.6266 43.3861 55.6187 43.3861H52.2093V39.9767C52.2172 39.0397 51.4613 38.2759 50.5282 38.2759C50.5203 38.2759 50.5124 38.2759 50.5085 38.2759H43.6975C43.6896 38.2759 43.6857 38.2759 43.6778 38.2759Z" fill="white"/>
<path fill-rule="evenodd" clip-rule="evenodd" d="M50.5238 38.2793C50.516 38.2793 50.5081 38.2793 50.5002 38.2793H47.0947V58.7084H50.5002C50.5042 58.7084 50.5081 58.7084 50.512 58.7084C51.453 58.7084 52.2168 57.9446 52.205 57.0076V53.5982H55.6105C55.6144 53.5982 55.6183 53.5982 55.6223 53.5982C56.5633 53.5982 57.327 52.8344 57.3152 51.8974V45.0864C57.3192 44.1494 56.5711 43.3895 55.6341 43.3895C55.6262 43.3895 55.6183 43.3895 55.6105 43.3895H52.205V39.984C52.2168 39.0431 51.4609 38.2793 50.5238 38.2793Z" fill="white"/>
</svg>
