<svg width="114" height="150" viewBox="0 0 114 150" fill="none" xmlns="http://www.w3.org/2000/svg">
<path fill-rule="evenodd" clip-rule="evenodd" d="M56.9301 0.430664C25.5727 0.430664 0.000473608 26.0321 0.000473608 57.4003C-0.0501057 69.7246 3.95187 81.7348 11.3784 91.5659L52.2898 146.65H61.5805L102.482 91.5659C109.898 81.7348 113.9 69.7246 113.87 57.4003C113.87 26.0321 88.2976 0.430664 56.9301 0.430664V0.430664Z" fill="#E7654B"/>
<path fill-rule="evenodd" clip-rule="evenodd" d="M56.9297 0.430664V146.65H61.5802L102.482 91.5659C109.918 81.7348 113.9 69.7246 113.869 57.4003C113.869 26.0321 88.2972 0.430664 56.9297 0.430664V0.430664Z" fill="#924430"/>
<path fill-rule="evenodd" clip-rule="evenodd" d="M83.2415 141.218C83.2314 141.218 83.2213 141.218 83.2111 141.218H30.6585C28.2269 141.218 26.2715 143.174 26.2715 145.596C26.2715 148.019 28.2269 149.985 30.6585 149.985H83.2111C83.2314 149.985 83.2517 149.985 83.2719 149.985C85.663 149.985 87.6082 148.019 87.5981 145.596C87.6082 143.184 85.6529 141.218 83.2415 141.218V141.218Z" fill="#0141B3"/>
<path fill-rule="evenodd" clip-rule="evenodd" d="M83.2416 141.218C83.2315 141.218 83.2214 141.218 83.2112 141.218H56.9297V149.985H83.2112C83.2315 149.985 83.2518 149.985 83.272 149.985C85.6631 149.985 87.6084 148.019 87.5982 145.596C87.6084 143.184 85.653 141.218 83.2416 141.218V141.218Z" fill="#0F1C4D"/>
<circle cx="57.0029" cy="57" r="40" fill="#FFF7EC"/>
</svg>
