<svg width="92" height="84" viewBox="0 0 92 84" fill="none" xmlns="http://www.w3.org/2000/svg">
<path fill-rule="evenodd" clip-rule="evenodd" d="M3.28556 20.6235C-1.75909 30.3856 -1.54266 43.7472 7.80726 60.9854C7.80726 60.9854 56.0537 99.3342 77.7434 76.641C81.0607 73.2179 83.6618 69.5182 85.6497 65.6713C96.7021 44.2835 88.7585 18.2979 78.9407 10.0818C60.6087 -5.66295 15.7861 -3.56655 3.28556 20.6235Z" fill="#344A9F"/>
<path fill-rule="evenodd" clip-rule="evenodd" d="M23.2278 34.3203C22.2868 34.3203 21.523 35.088 21.5348 36.0251V47.9385L24.7396 51.344H70.3261L79.6293 47.9385V36.0251C79.6332 35.088 78.8773 34.3203 77.9442 34.3203C77.9403 34.3203 77.9364 34.3203 77.9324 34.3203H23.2396C23.2357 34.3203 23.2317 34.3203 23.2278 34.3203Z" fill="#E7654B"/>
<path fill-rule="evenodd" clip-rule="evenodd" d="M77.9403 34.3276C77.9324 34.3276 77.9245 34.3276 77.9206 34.3276H50.5742V51.3434H70.3261L79.6293 47.9379V36.0245C79.6332 35.0914 78.8773 34.3276 77.9403 34.3276Z" fill="#E7654B"/>
<path fill-rule="evenodd" clip-rule="evenodd" d="M63.6212 10.3789C63.3298 10.3789 63.0345 10.4537 62.7668 10.6151L50.5818 17.6624L33.2944 27.6348C32.4755 28.1152 32.2039 29.1663 32.6803 29.9537L40.1015 42.8514H54.5975L74.6841 31.249C75.4951 30.7766 75.7747 29.7372 75.2904 28.9301L65.0817 11.2254C64.7747 10.686 64.2038 10.3789 63.6212 10.3789Z" fill="white"/>
<path fill-rule="evenodd" clip-rule="evenodd" d="M63.6214 10.3789C63.33 10.3789 63.0347 10.4537 62.767 10.6151L50.582 17.6624V42.8514H54.5977L74.6843 31.249C75.4953 30.7766 75.7749 29.7372 75.2906 28.9301L65.0819 11.2254C64.7749 10.686 64.204 10.3789 63.6214 10.3789Z" fill="white"/>
<path fill-rule="evenodd" clip-rule="evenodd" d="M67.6094 41.127C67.6055 41.127 67.6015 41.127 67.5976 41.127H33.5582C32.6173 41.127 31.8574 41.8907 31.8574 42.8317C31.8574 43.7726 32.6173 44.5364 33.5582 44.5364H67.5976C67.6055 44.5364 67.6133 44.5364 67.6212 44.5364C68.5582 44.5364 69.3141 43.7726 69.3023 42.8317C69.3141 41.8947 68.5543 41.127 67.6094 41.127Z" fill="#642A1F"/>
<path fill-rule="evenodd" clip-rule="evenodd" d="M50.582 41.127V44.5364H67.6056C68.5387 44.5364 69.3024 43.7726 69.3024 42.8317C69.3024 41.8907 68.5387 41.127 67.6056 41.127H50.582Z" fill="#0F1C4D"/>
<path fill-rule="evenodd" clip-rule="evenodd" d="M21.5348 47.938V66.7726C21.523 67.7136 22.2789 68.4774 23.216 68.4774C23.2239 68.4774 23.2317 68.4774 23.2396 68.4774H77.9325C77.9403 68.4774 77.9443 68.4774 77.9521 68.4774C78.8853 68.4774 79.6411 67.7136 79.6332 66.7726V47.938H21.5348Z" fill="#642A1F"/>
<path fill-rule="evenodd" clip-rule="evenodd" d="M50.582 47.938V68.4774H77.9245C77.9324 68.4774 77.9402 68.4774 77.9481 68.4774C78.8773 68.4774 79.6331 67.7136 79.6292 66.7726V47.938H50.582Z" fill="#642A1F"/>
<path fill-rule="evenodd" clip-rule="evenodd" d="M57.3651 20.7134C56.6526 20.7134 56.0068 21.1622 55.7903 21.863L53.2313 29.4496L51.7707 28.0205C51.4478 27.678 51.0108 27.5087 50.5778 27.5087C50.1447 27.5087 49.7116 27.678 49.3848 28.0205C48.7038 28.6701 48.7038 29.7567 49.3848 30.4063L52.7942 33.8118C53.1329 34.1583 53.562 34.3197 53.9911 34.3197C54.6762 34.3197 55.3455 33.9063 55.5817 33.1662L58.9871 22.9535C59.2982 22.0677 58.8218 21.0835 57.936 20.8118C57.7431 20.7449 57.5541 20.7134 57.3651 20.7134Z" fill="#0141B3"/>
<path fill-rule="evenodd" clip-rule="evenodd" d="M57.3773 20.7178C56.6568 20.7178 56.0072 21.1666 55.7906 21.8713L53.2395 29.4579L51.7789 28.0288C51.4717 27.6981 51.0466 27.513 50.6057 27.513C50.5978 27.513 50.5899 27.513 50.582 27.513V31.5997L52.7946 33.8123C53.1332 34.1587 53.5623 34.3201 53.9915 34.3201C54.6765 34.3201 55.3458 33.9067 55.582 33.1666L58.9875 22.954C59.2986 22.0682 58.8221 21.0839 57.9403 20.8123C57.7513 20.7493 57.5623 20.7178 57.3773 20.7178Z" fill="#0F1C4D"/>
</svg>
