<svg width="150" height="150" viewBox="0 0 150 150" fill="none" xmlns="http://www.w3.org/2000/svg">
<path fill-rule="evenodd" clip-rule="evenodd" d="M98.6497 23.894C82.5884 23.894 69.5146 36.9653 69.5146 53.0361C69.5146 69.1125 82.5884 82.1725 98.6497 82.1725C114.722 82.1725 127.785 69.1125 127.785 53.0361C127.785 36.9653 114.722 23.894 98.6497 23.894Z" fill="#0F1C4D"/>
<path fill-rule="evenodd" clip-rule="evenodd" d="M87.7268 28.7025C85.6433 31.9099 83.9923 36.0891 82.9196 40.8974H74.9058C77.6744 35.488 82.1952 31.1965 87.7268 28.7025ZM96.2292 27.0061V40.8974H87.9739C89.726 33.713 92.9215 28.7025 96.2292 27.0061ZM101.081 27.0061C104.383 28.7025 107.584 33.7074 109.331 40.8974H101.081V27.0061ZM109.578 28.7025C115.11 31.1965 119.625 35.488 122.393 40.8974H114.385C113.318 36.0891 111.667 31.9099 109.578 28.7025ZM124.348 45.7506C125.696 50.514 125.696 55.5639 124.348 60.3161H115.216C115.789 55.4796 115.789 50.5926 115.216 45.7506H124.348ZM82.0997 45.7506C81.5157 50.5926 81.5157 55.4796 82.0997 60.3273H72.974C72.3113 57.9456 71.9631 55.5021 71.9463 53.0361C71.9631 50.5758 72.3113 48.1211 72.974 45.7506H82.0997ZM96.2292 45.7506V60.3273H87.0473C86.7553 58.0354 86.5194 55.6144 86.5194 53.0361C86.5194 50.4635 86.7553 48.0312 87.0473 45.7506H96.2292ZM110.263 45.7506C110.55 48.0312 110.791 50.4635 110.791 53.0361C110.791 55.6144 110.55 58.0354 110.263 60.3273H101.081V45.7506H110.263ZM82.9196 65.1805C83.9923 69.9832 85.6433 74.168 87.7268 77.3642C82.1952 74.8814 77.6744 70.5787 74.9058 65.1805H82.9196ZM122.393 65.1805C119.625 70.5787 115.11 74.8814 109.578 77.3642C111.667 74.168 113.318 69.9832 114.385 65.1805H122.393ZM96.2292 65.1805V79.0719C92.9215 77.3642 89.726 72.3649 87.9739 65.1805H96.2292ZM109.331 65.1805C107.59 72.3649 104.383 77.3642 101.081 79.0719V65.1805H109.331ZM98.6496 21.4731C85.0593 21.4731 73.4569 30.1629 69.0316 42.2511C68.9755 42.3859 68.9249 42.5095 68.8912 42.6387C66.4933 49.3681 66.4933 56.7098 68.8912 63.428C68.9249 63.5628 68.9755 63.692 69.0316 63.8156C73.4513 75.915 85.0593 84.6048 98.6496 84.6048C112.251 84.6048 123.848 75.9094 128.268 63.8156C128.329 63.692 128.374 63.5628 128.419 63.428C130.812 56.7098 130.812 49.3681 128.419 42.6387C128.374 42.5095 128.329 42.3859 128.268 42.2511C123.848 30.1629 112.251 21.4731 98.6496 21.4731Z" fill="#0141B3"/>
<path fill-rule="evenodd" clip-rule="evenodd" d="M98.6494 23.894V82.1725C114.722 82.1725 127.784 69.1125 127.784 53.0361C127.784 36.9653 114.722 23.894 98.6494 23.894Z" fill="#0F1C4D"/>
<path fill-rule="evenodd" clip-rule="evenodd" d="M101.081 27.0061C104.378 28.7025 107.584 33.7074 109.331 40.8974H101.081V27.0061ZM109.578 28.7025C115.109 31.1965 119.625 35.488 122.393 40.8974H114.385C113.318 36.0891 111.667 31.9099 109.578 28.7025ZM124.348 45.7506C125.695 50.514 125.695 55.5639 124.348 60.3161H115.216C115.789 55.4796 115.789 50.5926 115.216 45.7506H124.348ZM110.252 45.7506C110.544 48.0312 110.791 50.4635 110.791 53.0361C110.791 55.6144 110.544 58.0354 110.252 60.3273H101.081V45.7506H110.252ZM122.393 65.1805C119.625 70.5787 115.109 74.8814 109.578 77.3642H109.572C111.656 74.168 113.307 69.9832 114.379 65.1805H122.393ZM109.331 65.1805C107.59 72.3649 104.383 77.3642 101.081 79.0719V65.1805H109.331ZM98.6494 21.4731V84.6048C112.251 84.6048 123.848 75.9094 128.267 63.8156C128.329 63.692 128.374 63.5628 128.419 63.428C130.811 56.7098 130.811 49.3681 128.419 42.6387C128.374 42.5095 128.329 42.3859 128.267 42.2511C123.848 30.1629 112.251 21.4731 98.6494 21.4731Z" fill="#0141B3"/>
<path fill-rule="evenodd" clip-rule="evenodd" d="M62.9307 82.8613C61.8771 82.8613 60.8234 83.2363 59.9927 84.0065L45.8597 98.1332C43.1141 100.89 45.0593 105.592 48.9598 105.612C50.1249 105.612 51.2292 105.146 52.06 104.335L66.1829 90.1882C67.7532 88.4654 67.6924 85.8103 66.0309 84.1483C65.1799 83.2971 64.0553 82.8613 62.9307 82.8613Z" fill="#0F1C4D"/>
<path fill-rule="evenodd" clip-rule="evenodd" d="M42.7598 90.6543C41.6454 90.6543 40.5208 91.0799 39.6698 91.9312L4.03831 127.562C0.299919 131.332 -0.834782 136.977 1.20158 141.882C3.22781 146.797 8.03001 149.999 13.3388 149.999C16.8239 149.999 20.1773 148.611 22.6291 146.148L58.2403 110.517C59.9424 108.804 59.9424 106.038 58.2403 104.315L45.86 91.9312C44.9988 91.0799 43.8844 90.6543 42.7598 90.6543Z" fill="#642A1F"/>
<path fill-rule="evenodd" clip-rule="evenodd" d="M97.1338 0.45166V9.22768C121.307 9.22768 140.921 28.8471 140.921 53.0267C140.921 77.2165 121.307 96.8359 97.1338 96.8359V105.612C126.119 105.612 149.695 82.0403 149.695 53.0369C149.695 24.0334 126.129 0.471935 97.1338 0.45166Z" fill="#642A1F"/>
<path fill-rule="evenodd" clip-rule="evenodd" d="M97.1337 9.22791C121.317 9.22791 140.921 28.8473 140.921 53.0371C140.921 77.2167 121.317 96.8361 97.1337 96.8361C72.9504 96.8361 53.3262 77.2167 53.3262 53.0371C53.3262 28.8473 72.9504 9.22791 97.1337 9.22791ZM97.1337 0.472168C68.1381 0.472168 44.583 24.0336 44.583 53.0371C44.583 82.0405 68.1381 105.612 97.1337 105.612C126.129 105.612 149.695 82.0405 149.695 53.0371C149.695 24.0336 126.129 0.472168 97.1337 0.472168Z" fill="#E7654B"/>
</svg>
