<svg width="838" height="934" viewBox="0 0 838 934" fill="none" xmlns="http://www.w3.org/2000/svg">
<g clip-path="url(#clip0_1228_5004)">
<path fill-rule="evenodd" clip-rule="evenodd" d="M266.498 287C255.208 287 246 296.218 246 307.512C245.982 311.95 247.423 316.274 250.097 319.814L264.827 339.648H268.173L282.9 319.814C285.57 316.274 287.011 311.95 287 307.512C287 296.218 277.792 287 266.498 287Z" fill="#E7654B"/>
<path fill-rule="evenodd" clip-rule="evenodd" d="M266.499 287V339.648H268.173L282.9 319.814C285.578 316.274 287.011 311.95 287 307.512C287 296.218 277.793 287 266.499 287Z" fill="#924430"/>
<path fill-rule="evenodd" clip-rule="evenodd" d="M275.972 337.692C275.968 337.692 275.964 337.692 275.961 337.692H257.039C256.163 337.692 255.459 338.396 255.459 339.268C255.459 340.141 256.163 340.849 257.039 340.849H275.961C275.968 340.849 275.975 340.849 275.983 340.849C276.843 340.849 277.544 340.141 277.54 339.268C277.544 338.4 276.84 337.692 275.972 337.692Z" fill="#0141B3"/>
<path fill-rule="evenodd" clip-rule="evenodd" d="M275.972 337.692C275.969 337.692 275.965 337.692 275.961 337.692H266.499V340.849H275.961C275.969 340.849 275.976 340.849 275.983 340.849C276.844 340.849 277.545 340.141 277.541 339.268C277.545 338.4 276.841 337.692 275.972 337.692Z" fill="#0F1C4D"/>
<circle cx="266.524" cy="307.368" r="14.4024" fill="#FFF7EC"/>
<path fill-rule="evenodd" clip-rule="evenodd" d="M266.498 287C255.208 287 246 296.218 246 307.512C245.982 311.95 247.423 316.274 250.097 319.814L264.827 339.648H268.173L282.9 319.814C285.57 316.274 287.011 311.95 287 307.512C287 296.218 277.792 287 266.498 287Z" fill="#E7654B"/>
<path fill-rule="evenodd" clip-rule="evenodd" d="M266.499 287V339.648H268.173L282.9 319.814C285.578 316.274 287.011 311.95 287 307.512C287 296.218 277.793 287 266.499 287Z" fill="#924430"/>
<path fill-rule="evenodd" clip-rule="evenodd" d="M275.972 337.692C275.968 337.692 275.964 337.692 275.961 337.692H257.039C256.163 337.692 255.459 338.396 255.459 339.268C255.459 340.141 256.163 340.849 257.039 340.849H275.961C275.968 340.849 275.975 340.849 275.983 340.849C276.843 340.849 277.544 340.141 277.54 339.268C277.544 338.4 276.84 337.692 275.972 337.692Z" fill="#0141B3"/>
<path fill-rule="evenodd" clip-rule="evenodd" d="M275.972 337.692C275.969 337.692 275.965 337.692 275.961 337.692H266.499V340.849H275.961C275.969 340.849 275.976 340.849 275.983 340.849C276.844 340.849 277.545 340.141 277.541 339.268C277.545 338.4 276.841 337.692 275.972 337.692Z" fill="#0F1C4D"/>
<circle cx="266.524" cy="307.368" r="14.4024" fill="#FFF7EC"/>
<path fill-rule="evenodd" clip-rule="evenodd" d="M630.614 10.0989C631.114 10.0989 631.614 10.1235 632.127 10.1788C632.465 10.2832 632.803 10.3938 633.03 10.4982L619.777 13.3301C623.206 11.776 626.66 10.0989 630.614 10.0989ZM618.946 13.5758L618.777 13.6803H618.66L618.888 13.5758H618.946ZM442.88 54.9852C444.146 54.9852 445.497 55.5872 446.977 57.209C448.399 57.0062 449.776 56.9325 451.165 56.9325C451.971 56.9325 452.776 56.9571 453.594 56.9939C453.938 57.0431 454.302 57.0615 454.691 57.0615C456.931 57.0615 459.808 56.3674 462.1 56.3674C465.496 56.3674 467.613 57.897 464.483 65.4896C463.808 67.185 465.379 69.1999 467.509 69.9432C469.308 70.2626 471.217 70.5821 473.009 70.6865C470.762 73.2358 468.86 76.209 466.055 78.1194C465.431 78.5433 464.847 78.7092 464.282 78.7092C462.301 78.7092 460.62 76.6206 458.873 76.209C447.873 73.3402 449.217 64.4269 446.977 57.209L436.205 58.4805C438.4 57.0984 440.503 54.9852 442.88 54.9852ZM333.714 76.5837C334.02 76.5837 334.37 76.6021 334.76 76.6328C335.994 77.6956 337.682 79.1822 339.474 80.5643C338.351 81.5165 337.007 82.1553 335.656 82.6836C335.377 82.7266 335.13 82.745 334.903 82.745C332.117 82.745 333.02 79.9009 332.292 78.3344C331.63 77.0813 332.085 76.5837 333.714 76.5837ZM359.266 77.0874C359.558 77.0874 359.844 77.112 360.123 77.1673L353.389 84.7046L349.35 80.9882C352.376 79.7104 355.298 78.3344 358.324 77.1673C358.662 77.112 358.973 77.0874 359.266 77.0874ZM758.507 0C728.462 0 698.418 4.58876 668.373 6.35792C660.743 6.78178 653.114 6.03848 645.367 7.74007C645.309 7.75236 645.244 7.7585 645.172 7.7585C643.108 7.7585 637.88 1.88587 632.127 1.4743C625.965 1.05658 619.816 0.878437 613.673 0.878437C593.414 0.878437 573.227 2.8196 552.909 4.44747C540.416 5.37505 528.533 10.0559 515.735 10.0559C513.93 10.0559 512.112 9.96381 510.267 9.75495C509.209 9.63209 508.105 9.56452 506.975 9.56452C501.261 9.56452 495.008 11.303 492.197 16.4446C489.502 21.4326 494.664 25.573 498.709 29.1788C500.391 30.6654 500.502 33.8536 501.398 36.1879C501.255 36.1818 501.105 36.1756 500.95 36.1756C499.995 36.1756 498.917 36.3169 497.982 36.3169C497.216 36.3169 496.547 36.2186 496.125 35.8685C494.352 34.3143 492.723 33.7185 491.177 33.7185C488.716 33.7185 486.463 35.2173 484.119 36.7162V36.8268H484.009C482.21 39.0566 477.613 39.7999 478.846 43.4058C480.19 47.0179 484.457 47.1223 488.158 47.4417H490.067L499.943 49.0327C498.372 49.561 496.8 49.8805 495.119 49.8805C493.658 49.776 492.307 48.7133 490.742 48.2894C489.865 48.056 489.021 47.9577 488.197 47.9577C484.56 47.9577 481.288 49.8559 477.723 50.1999C477.678 50.206 477.632 50.2122 477.58 50.2122C475.944 50.2122 472.457 46.766 472.671 45.4207C473.684 39.7999 478.281 37.4595 483.892 36.8268V36.7162C484.229 34.0625 484.905 31.4087 485.69 28.755C486.476 26.8445 488.833 25.0385 486.814 23.0236C484.918 21.2975 482.651 20.8613 480.288 20.8613C478.58 20.8613 476.833 21.0886 475.139 21.2176C472.671 21.5371 471.438 23.0236 471.1 25.6774C470.431 32.2626 467.399 37.4595 459.769 38.9461C459.094 39.4805 458.535 40.0088 457.86 40.6477C458.646 42.1342 459.542 43.5103 460.665 44.788C462.009 45.5313 463.581 46.164 465.152 46.4834C464.256 46.379 463.36 46.3237 462.464 46.3237C461.561 46.3237 460.665 46.379 459.769 46.4834C457.237 47.1223 454.665 47.3496 452.081 47.3496C445.828 47.3496 439.464 46.035 433.205 46.035C428.27 46.035 423.394 46.852 418.699 49.776C416.342 51.2626 411.855 51.4715 412.413 54.4446C412.972 57.6328 415.667 60.8148 418.134 63.3642C418.907 64.175 419.764 64.4883 420.679 64.4883C422.036 64.4883 423.51 63.8064 424.984 63.0447C428.374 61.2878 432.185 60.133 435.809 58.7017C428.692 67.7072 415.05 67.0253 407.926 73.5552C402.154 78.9364 396.842 80.853 390.927 80.853C388.563 80.853 386.096 80.5459 383.46 80.0299C378.414 79.0777 373.59 76.8478 368.648 75.1463C370.252 74.0221 371.739 73.5983 373.148 73.5983C376.674 73.5983 379.726 76.2704 383.012 77.4806C384.271 77.9352 385.44 78.1256 386.531 78.1256C391.868 78.1256 395.505 73.5123 400.07 71.7492C404.219 70.1582 400.966 66.6568 399.394 63.788C398.05 61.3493 401.082 59.8627 403.212 58.585C405.907 57.0984 410.952 56.6745 409.271 52.3253C408.206 49.7453 406.16 49.3276 403.894 49.3276C402.81 49.3276 401.68 49.4197 400.589 49.4197C400.108 49.4197 399.634 49.4013 399.173 49.3522C398.764 49.3092 398.362 49.2907 397.959 49.2907C392.635 49.2907 388.434 52.7246 382.635 52.7246C382.142 52.7246 381.629 52.7001 381.103 52.6448C371.791 51.6865 365.174 47.1223 357.318 44.1491C352.506 42.337 347.85 41.5691 343.318 41.5691C330.312 41.5691 318.332 47.9086 306.598 54.1314C303.566 55.7224 302.67 57.9523 304.014 61.2387C305.202 64.046 306.475 66.024 309.514 66.024C309.929 66.024 310.377 65.9872 310.858 65.9135L326.909 63.1492C327.689 63.0447 328.474 62.8359 329.377 62.6209C329.377 63.2597 329.26 63.8924 329.26 64.5313C327.663 71.6448 324.637 75.6868 319.001 75.6868C316.734 75.6868 314.046 75.0295 310.858 73.6597C300.131 69.1324 289.216 67.443 277.93 67.443C271.742 67.443 265.45 67.9529 259.015 68.7761C249.236 70.0538 239.665 75.4657 229.971 75.4657C227.542 75.4657 225.107 75.1278 222.659 74.2985C211.329 70.5821 199.654 68.2478 187.758 67.0806C174.849 65.7169 162.453 62.67 149.305 62.67C144.051 62.67 138.681 63.1553 133.11 64.4269C118.377 67.9099 104.299 75.3674 88.5726 75.3674C87.0532 75.3674 85.5143 75.2998 83.9623 75.1463C83.7416 75.1278 83.5208 75.1217 83.3065 75.1217C80.0014 75.1217 78.0729 77.4314 79.0274 81.6209C80.1638 86.4369 79.0404 90.3438 74.8977 90.3438C73.7484 90.3438 72.3588 90.0428 70.7225 89.3733C68.1966 88.3228 65.8395 87.8928 63.5993 87.8928C57.671 87.8928 52.5282 90.9213 47.1583 93.618C44.2363 95.1046 42.3338 97.7583 43.6779 101.155C44.6389 103.729 46.6323 104.356 49.0089 104.356C49.6712 104.356 50.3725 104.307 51.0867 104.233C52.9373 103.993 54.7879 103.877 56.6385 103.877C57.2554 103.877 57.8722 103.889 58.4891 103.92C58.6579 103.932 58.8397 103.938 59.0216 103.938C60.4241 103.938 62.2228 103.582 63.5993 103.582C64.7941 103.582 65.6707 103.852 65.6707 104.872C65.6707 107.489 62.1773 108.343 59.3397 108.343C58.8397 108.343 58.3657 108.318 57.9307 108.269C56.6255 108.14 55.3528 108.078 54.0996 108.078C40.0092 108.078 28.7952 115.849 16.6333 121.114C6.75693 125.358 14.2762 132.367 13.8281 137.779C13.7113 140.144 14.9515 140.716 16.5813 140.716C18.0942 140.716 19.9383 140.224 21.3474 140.224C22.8084 140.224 24.1525 141.176 25.4966 141.711C24.4902 142.774 23.3668 143.621 22.0227 144.365C15.9579 146.699 9.67892 148.609 3.61417 151.048C1.14672 152.006 -0.983098 154.445 0.4779 157.314C1.12074 158.585 2.01032 158.979 3.00379 158.979C4.25051 158.979 5.67255 158.352 6.9842 158.057C13.6074 156.362 20.789 155.723 26.62 152.75C28.8861 151.601 31.2497 151.239 33.6587 151.239C37.6586 151.239 41.7688 152.234 45.7038 152.234C49.0219 152.234 52.2231 151.527 55.1256 148.929C58.3787 145.956 61.5215 142.982 64.7746 140.114C67.307 137.835 70.0147 137.202 72.8133 137.202C76.3067 137.202 79.9495 138.185 83.5922 138.185C85.1766 138.185 86.7675 138.001 88.3388 137.46C95.6049 134.972 102.696 130.709 110.793 130.709C114.078 130.709 117.526 131.409 121.214 133.215C130.643 137.779 143.435 137.251 141.642 152.221C141.305 154.875 142.538 158.905 144.558 160.496C153.2 167.401 152.636 180.669 149.72 184.171C142.201 193.41 145.006 200.093 148.259 208.693C149.162 211.347 147.025 215.278 145.454 218.252C138.272 232.472 124.695 242.455 117.403 256.786C112.351 266.658 109.773 299.67 118.189 305.512C130.305 314.001 128.403 324.727 130.422 335.766C131.656 342.455 131.539 353.39 133.337 354.766C144.331 362.942 143.435 376.954 152.415 385.554C154.298 387.409 156.129 388.588 158.148 388.588C159.135 388.588 160.174 388.306 161.278 387.679C164.642 385.873 164.759 382.372 162.622 379.822C152.298 366.554 153.2 349.458 145.344 335.342C144.558 333.855 145.792 331.306 146.357 329.291C146.434 329.064 147.564 328.885 148.233 328.885C148.493 328.885 148.681 328.91 148.707 328.971C149.493 330.562 150.733 332.368 150.733 334.174C150.843 349.034 161.168 360.079 168.012 372.07C174.18 382.685 185.07 391.076 179.005 405.297C177.771 408.166 180.355 410.291 182.596 412.411C188.212 417.718 195.277 421.011 201.9 425.047C212.705 431.368 222.685 439.317 235.51 439.317C238.399 439.317 241.432 438.917 244.652 437.996C245.302 437.818 245.899 437.732 246.451 437.732C249.178 437.732 250.905 439.722 252.399 441.927C257.106 449.035 263.73 452.862 272.483 454.772C282.021 456.787 293.131 459.336 296.047 469.312C298.962 479.823 307.046 485.978 314.897 490.862C318.721 493.251 323.929 499.579 329.487 499.579C332.585 499.579 335.786 497.619 338.916 491.924C339.662 490.512 340.76 489.676 341.941 489.676C343.24 489.676 344.636 490.696 345.759 493.092C353.5 510.82 349.123 526.429 334.201 540.226C326.909 547.02 322.416 556.573 328.702 566.34C330.721 569.632 330.611 570.591 328.143 573.029C321.63 579.504 321.747 588.952 327.357 593.627C338.013 602.54 343.065 614.113 349.461 625.367C358.999 642.033 367.642 659.018 388.174 667.299C399.394 671.863 405.68 681.949 405.907 694.899C406.245 714.538 407.251 734.176 408.712 753.815C409.719 768.571 417.348 782.798 412.186 798.087C410.056 804.243 411.069 810.293 413.537 816.24C416.679 823.562 417.575 831.523 416.452 839.38C415.777 845.222 418.361 851.801 425.315 854.774C425.491 854.842 425.692 854.866 425.9 854.866C426.828 854.866 428.017 854.332 428.9 854.332C429.724 854.332 430.289 854.793 430.147 856.58C429.919 859.977 434.523 863.479 429.471 866.98C426.887 868.682 423.413 873.885 426.101 874.837C433.4 877.491 430.815 883.333 432.614 887.577C437.101 897.873 443.834 907.112 452.25 914.858C465.379 927.002 480.106 934.282 497.748 934.282C500.463 934.282 503.255 934.11 506.112 933.754C507.794 933.434 509.255 932.378 510.151 930.995C511.164 929.189 509.482 927.813 507.794 926.855C502.859 923.986 497.924 920.909 492.761 918.255C478.957 911.252 476.6 900.846 485.353 888.849C489.956 882.479 490.515 875.795 480.638 872.398C477.613 871.44 472.561 869.529 476.6 866.132C481.203 862.096 481.203 857.532 482.21 852.864C483.444 846.389 476.489 836.622 490.404 835.344C490.852 835.344 491.528 832.905 491.19 831.947C488.891 824.748 491.638 822.677 498.346 822.677C498.852 822.677 499.385 822.69 499.943 822.714C500.216 822.727 500.495 822.733 500.761 822.733C506.8 822.733 511.852 819.391 514.754 814.01C517.559 808.702 516.774 803.714 512.287 799.254C511.053 797.977 510.826 795.857 510.04 794.156C511.832 794.266 513.521 794.475 515.313 794.795C516.326 795.059 517.371 795.188 518.417 795.188C520.728 795.188 523.033 794.549 524.962 793.308C537.306 786.299 540.228 773.03 547.52 762.63C552.344 755.726 558.402 748.299 554.474 738.532C551.11 729.827 557.169 726.006 563.454 720.908C572.097 714.009 585.447 714.857 591.395 707.743C603.511 693.203 608.005 675.155 608.563 656.469C608.79 649.57 606.544 642.776 613.505 636.621C620.011 630.57 625.173 623.457 628.874 615.6C637.627 597.024 632.465 587.68 607.888 573.773C602.005 570.468 596.473 566.241 589.401 566.241C588.518 566.241 587.616 566.309 586.681 566.45C585.843 566.573 585.031 566.628 584.239 566.628C578.967 566.628 574.577 564.085 570.188 561.776C562.11 557.531 553.688 554.029 544.942 551.265C540.676 549.993 533.832 549.25 532.929 542.456C530.799 525.287 520.741 505.138 500.346 505.138C499.3 505.138 498.235 505.193 497.138 505.304C496.463 505.402 495.794 505.451 495.132 505.451C491.677 505.451 488.379 504.094 486.028 501.692C478.281 494.369 471.217 486.193 462.347 480.247C457.776 477.132 453.133 472.046 446.776 472.046C445.328 472.046 443.795 472.31 442.153 472.924C440.64 473.502 439.159 473.698 437.711 473.698C434.64 473.698 431.692 472.814 428.796 472.814C419.666 472.814 414.199 465.055 405.524 465.055C405.355 465.055 405.18 465.062 405.004 465.068C403.414 465.068 400.479 466.935 398.42 466.935C396.712 466.935 395.602 465.645 396.368 460.927C396.609 459.416 394.342 458.335 392.615 458.335C391.914 458.335 391.304 458.513 390.979 458.912C383.577 467.402 369.772 467.298 363.713 477.593C361.61 481.144 359.11 483.883 355.603 483.883C353.863 483.883 351.876 483.208 349.571 481.629C347.292 479.915 344.493 479.037 341.675 479.037C339.779 479.037 337.87 479.436 336.11 480.247C332.591 481.666 329.637 482.385 327.189 482.385C321.195 482.385 318.26 478.072 317.702 469.104C317.481 463.157 318.377 457.315 320.286 451.688C323.754 441.436 317.799 434.255 306.572 434.255C306.176 434.255 305.774 434.261 305.358 434.279C302.443 434.39 299.527 434.703 296.495 434.814C296.112 434.82 295.748 434.832 295.397 434.832C292.17 434.832 290.469 434.2 291.781 429.506C294.255 420.691 298.631 413.049 303.456 405.408C305.585 402.011 305.696 399.246 302.553 396.912C300.339 395.198 297.242 394.43 293.917 394.43C286.151 394.43 277.138 398.608 275.177 404.554C272.775 411.845 263.892 417.282 255.84 417.282C252.983 417.282 250.23 416.594 247.905 415.064C239.042 409.124 232.756 398.503 236.127 389.799C242.97 372.07 245.665 348.93 270.574 344.574C286.398 341.712 302.222 339.697 318.267 338.634C318.819 338.597 319.377 338.579 319.942 338.579C328.994 338.579 339.026 343.512 335.435 357.106C334.76 359.864 337.227 363.685 338.799 366.658C340.571 370.111 343.104 373.772 347.48 373.772C347.539 373.772 347.604 373.772 347.669 373.772C352.603 373.557 353.727 369.097 355.181 365.491C357.09 360.607 357.09 355.196 355.409 350.312C350.474 335.661 355.636 325.679 369.882 318.78C377.512 315.174 384.245 309.861 391.654 305.831C402.427 299.885 398.836 286.512 408.712 279.183C419.257 271.326 425.991 258.697 441.815 258.377C444.282 258.273 447.088 257.314 447.536 254.661C449.445 243.941 459.542 242.135 467.509 238.099C468.613 237.528 470.197 236.576 471.418 236.576C472.697 236.576 473.58 237.608 473.119 241.177C472.736 244.463 475.165 246.196 477.846 246.196C479.067 246.196 480.34 245.839 481.424 245.108C490.852 238.947 501.963 236.508 511.949 231.729C516.774 229.29 520.365 225.893 517.111 221.114C515.858 219.351 514.67 218.706 513.534 218.706C511.105 218.706 508.891 221.655 506.677 223.025C504.32 224.493 501.898 225.697 499.534 225.697C497.625 225.697 495.755 224.904 493.995 222.816C490.404 218.46 493.32 215.911 497.248 213.472C501.06 211.138 500.839 207.741 499.157 203.92C498.482 202.219 493.547 202.857 496.352 200.523C497.099 199.866 497.729 199.596 498.268 199.596C499.924 199.596 500.807 202.053 502.073 203.49C504.385 206.175 509.118 208.196 512.105 208.196C513.612 208.196 514.676 207.68 514.754 206.463C515.131 200.499 517.605 199.43 520.533 199.43C522.17 199.43 523.949 199.761 525.585 199.761C526.228 199.761 526.851 199.712 527.436 199.565C530.773 198.662 533.221 195.529 536.851 195.529C537.487 195.529 538.156 195.627 538.877 195.848C535.734 199.46 532.708 203.177 529.566 206.887C528.89 207.422 528.105 207.845 527.319 208.269C525.189 209.651 523.507 211.457 524.176 214.216C524.962 216.869 527.436 216.55 529.338 217.613C531.286 218.663 533.358 218.983 535.455 218.983C538.799 218.983 542.228 218.159 545.364 218.159C547.623 218.159 549.734 218.589 551.558 220.051C554.415 222.294 556.623 223.184 558.305 223.184C562.045 223.184 563.194 218.798 563.117 215.063C563.006 210.18 567.831 201.051 555.26 200.413C550.883 200.204 551.786 196.487 554.812 193.41C565.136 183.004 561.656 169.096 547.747 164.427C544.487 163.365 541.572 161.03 542.247 158.696C544.266 150.52 538.208 143.941 538.539 136.188C538.656 133.75 538.429 131.305 535.513 130.353C534.897 130.156 534.299 130.07 533.721 130.07C531.78 130.07 530.079 131.084 528.78 132.472C525.527 135.973 521.488 138.842 516.884 140.753C515.767 141.256 514.65 141.723 513.586 141.723C512.612 141.723 511.683 141.336 510.826 140.224C509.144 138.203 510.378 136.827 511.722 135.236C515.202 130.561 513.631 127.379 508.469 124.935C506.339 123.872 504.43 122.496 502.748 120.794C500.086 117.612 494.813 116.181 489.197 116.181C481.32 116.181 472.769 118.994 469.756 123.767C466.951 128.227 465.152 134.063 458.756 136.188C455.841 137.147 453.821 140.009 455.73 142.982C462.347 153.597 453.821 156.571 446.412 159.863C438.562 163.26 429.134 164.636 429.809 176.209C430.03 178.863 426.887 181.836 424.867 184.386C423.945 185.498 422.582 187.144 420.965 187.144C420.42 187.144 419.848 186.96 419.257 186.505C417.238 185.025 416.452 182.475 417.238 180.245C420.381 169.52 421.614 159.648 404.894 159.12C403.212 159.12 401.193 157.529 399.959 156.251C395.648 152.092 391.206 148.923 385.7 148.923C383.752 148.923 381.674 149.316 379.421 150.2C379.297 150.237 379.161 150.25 379.018 150.25C378.278 150.25 377.369 149.85 376.616 149.672C380.544 144.365 373.59 137.779 380.992 131.839C400.297 116.654 425.991 114 445.627 100.093L450.003 97.23C455.73 95.7434 461.451 93.4091 467.288 92.8747C481.762 91.6031 488.158 85.4479 487.71 72.2837C487.71 71.2332 487.95 70.9077 488.301 70.9077C488.872 70.9077 489.736 71.7922 490.288 71.8598C497.924 72.1731 503.755 77.9106 511.612 78.3344C514.975 78.4389 518.118 82.2598 521.15 84.7046C521.04 85.6568 520.585 86.5045 519.8 87.2478C512.625 89.9875 506.858 95.8233 498.502 95.8233C497.456 95.8233 496.365 95.7312 495.229 95.5284C494.612 95.424 493.989 95.3687 493.378 95.3687C489.112 95.3687 485.327 97.961 485.911 103.066C486.275 107.114 488.749 108.238 491.632 108.238C493.21 108.238 494.917 107.9 496.463 107.526C497.839 107.2 499.092 107.04 500.248 107.04C504.372 107.04 507.345 109.037 510.936 112.514C515.988 117.293 523.17 120.475 530.124 122.815C530.851 123.067 531.494 123.184 532.072 123.184C535.325 123.184 536.312 119.449 536.41 116.021C536.689 115.966 536.974 115.941 537.254 115.941C537.533 115.941 537.812 115.966 538.091 116.021C540.39 116.623 542.253 116.9 543.747 116.9C551.188 116.9 549.747 110.155 548.533 103.705C548.195 101.899 547.072 99.036 547.857 98.3972C548.383 97.9672 548.864 97.7952 549.312 97.7952C550.844 97.7952 551.987 99.8346 553.467 100.412C555.078 100.965 556.63 101.198 558.149 101.198C562.441 101.198 566.402 99.3555 570.298 97.8628C572.655 97.015 573.668 93.833 572.097 92.3464C564.35 84.4896 557.279 76.209 549.766 68.2478C545.5 63.5792 538.994 60.0715 534.949 54.7641C532.819 51.4715 529.118 49.3522 525.079 49.1372C524.858 49.1126 524.644 49.1064 524.423 49.1064C522.942 49.1064 521.417 49.5979 519.956 49.5979C518.839 49.5979 517.761 49.3092 516.774 48.2894C519.579 47.6506 522.384 47.0179 525.079 46.594C528.332 45.9551 532.708 46.4834 532.929 42.1342C533.267 38.0984 529.338 37.8833 526.312 37.1401C525.527 36.9312 524.631 36.6118 523.955 36.1879C524.696 36.108 525.624 35.8562 526.416 35.8562C526.702 35.8562 526.975 35.893 527.208 35.9729C530.267 37.2568 533.228 37.7851 536.098 37.7851C544.403 37.7851 551.961 33.399 558.967 30.2416C578.097 21.6722 598.563 19.0062 618.478 13.7294C609.29 20.0689 598.102 23.5519 586.681 23.5519C586.012 23.5519 585.324 23.5335 584.648 23.5335C582.285 23.5335 580.025 23.7915 578.713 26.1012C577.032 29.4983 579.947 31.4087 581.746 33.958C585.038 38.7434 589.168 40.4572 593.849 40.4572C596.025 40.4572 598.323 40.0825 600.706 39.4805C603.128 38.8355 605.511 38.5284 607.79 38.5284C617.914 38.5284 626.011 44.4931 625.731 53.0686C625.621 56.0418 622.368 59.6477 623.374 61.8776C626.628 69.4149 620.797 75.5701 618.329 80.1343C611.933 92.242 607.102 102.642 618.55 113.896C619.784 114.958 620.569 116.334 620.797 117.821C621.134 131.2 634.712 127.699 641.893 131.944C643.095 132.668 644.231 132.982 645.296 132.982C649.685 132.982 652.938 127.674 655.471 124.087C662.99 113.472 674.886 104.767 685.541 101.579C708.209 94.5763 729.417 83.218 753.883 80.5643C764.993 79.2866 777.785 75.6807 778.344 60.7104C778.344 59.5433 780.473 58.2655 781.824 57.3134C789.006 52.5342 798.544 49.3522 795.291 38.0984C795.051 37.1953 795.259 36.9803 795.622 36.9803C795.94 36.9803 796.382 37.1401 796.746 37.1401C797.22 37.1708 797.674 37.1831 798.103 37.1831C805.927 37.1831 806.654 32.6864 803.142 26.949C801.46 24.0864 803.369 24.2952 804.492 23.4475C812.232 17.6117 821.323 16.7579 830.751 16.334C833.887 16.1251 837.816 15.4863 838.264 11.8804C838.602 8.37279 834.79 7.6295 832.095 7.31007C815.265 5.82348 798.544 2.64145 781.824 1.05044C774.052 0.307146 766.279 3.30758e-07 758.507 3.30758e-07V0Z" fill="#F3D5B9"/>
<path fill-rule="evenodd" clip-rule="evenodd" d="M275.998 275C262.78 275 252 285.792 252 299.015C251.979 304.21 253.666 309.272 256.796 313.417L274.042 336.636H277.958L295.2 313.417C298.326 309.272 300.013 304.21 300 299.015C300 285.792 289.22 275 275.998 275Z" fill="#E7654B"/>
<path fill-rule="evenodd" clip-rule="evenodd" d="M275.998 275V336.636H277.958L295.2 313.417C298.334 309.272 300.013 304.21 300 299.015C300 285.792 289.22 275 275.998 275Z" fill="#924430"/>
<circle cx="276.028" cy="298.846" r="16.8613" fill="#FFF7EC"/>
<path fill-rule="evenodd" clip-rule="evenodd" d="M425.998 196C412.78 196 402 206.792 402 220.015C401.979 225.21 403.666 230.272 406.796 234.417L424.042 257.636H427.958L445.2 234.417C448.326 230.272 450.013 225.21 450 220.015C450 206.792 439.22 196 425.998 196Z" fill="#E7654B"/>
<path fill-rule="evenodd" clip-rule="evenodd" d="M425.998 196V257.636H427.958L445.2 234.417C448.334 230.272 450.013 225.21 450 220.015C450 206.792 439.22 196 425.998 196Z" fill="#924430"/>
<circle cx="426.028" cy="219.846" r="16.8613" fill="#FFF7EC"/>
<path fill-rule="evenodd" clip-rule="evenodd" d="M165.998 147C152.78 147 142 157.792 142 171.015C141.979 176.21 143.666 181.272 146.796 185.417L164.042 208.636H167.958L185.2 185.417C188.326 181.272 190.013 176.21 190 171.015C190 157.792 179.22 147 165.998 147Z" fill="#E7654B"/>
<path fill-rule="evenodd" clip-rule="evenodd" d="M165.998 147V208.636H167.958L185.2 185.417C188.334 181.272 190.013 176.21 190 171.015C190 157.792 179.22 147 165.998 147Z" fill="#924430"/>
<circle cx="166.028" cy="170.846" r="16.8613" fill="#FFF7EC"/>
<path fill-rule="evenodd" clip-rule="evenodd" d="M129.998 213C116.78 213 106 223.792 106 237.015C105.979 242.21 107.666 247.272 110.796 251.417L128.042 274.636H131.958L149.2 251.417C152.326 247.272 154.013 242.21 154 237.015C154 223.792 143.22 213 129.998 213Z" fill="#E7654B"/>
<path fill-rule="evenodd" clip-rule="evenodd" d="M129.998 213V274.636H131.958L149.2 251.417C152.334 247.272 154.013 242.21 154 237.015C154 223.792 143.22 213 129.998 213Z" fill="#924430"/>
<circle cx="130.028" cy="236.846" r="16.8613" fill="#FFF7EC"/>
<path fill-rule="evenodd" clip-rule="evenodd" d="M396.998 209C383.78 209 373 219.792 373 233.015C372.979 238.21 374.666 243.272 377.796 247.417L395.042 270.636H398.958L416.2 247.417C419.326 243.272 421.013 238.21 421 233.015C421 219.792 410.22 209 396.998 209Z" fill="#E7654B"/>
<path fill-rule="evenodd" clip-rule="evenodd" d="M396.998 209V270.636H398.958L416.2 247.417C419.334 243.272 421.013 238.21 421 233.015C421 219.792 410.22 209 396.998 209Z" fill="#924430"/>
<circle cx="397.028" cy="232.846" r="16.8613" fill="#FFF7EC"/>
<path d="M407.226 225.768C406.664 225.208 405.997 224.763 405.263 224.46C404.528 224.156 403.741 224 402.946 224C402.151 224 401.364 224.156 400.63 224.46C399.895 224.763 399.228 225.208 398.666 225.768L397.5 226.931L396.333 225.768C395.198 224.636 393.659 224.001 392.053 224.001C390.448 224.001 388.908 224.636 387.773 225.768C386.638 226.9 386 228.435 386 230.035C386 231.636 386.638 233.171 387.773 234.303L388.939 235.465L397.5 244L406.06 235.465L407.226 234.303C407.789 233.742 408.235 233.077 408.539 232.345C408.843 231.613 409 230.828 409 230.035C409 229.243 408.843 228.458 408.539 227.726C408.235 226.994 407.789 226.328 407.226 225.768Z" fill="#E7654B" stroke="#E7654B" stroke-width="2" stroke-linecap="round" stroke-linejoin="round"/>
</g>
<defs>
<clipPath id="clip0_1228_5004">
<rect width="838" height="934" fill="white"/>
</clipPath>
</defs>
</svg>
